<svg width="1440" height="900" viewBox="0 0 1440 900" fill="none" xmlns="http://www.w3.org/2000/svg">
<rect y="-2" width="1440" height="915" fill="#17204E" stroke="#17204E"/>
<mask id="mask0_546_14267" style="mask-type:luminance" maskUnits="userSpaceOnUse" x="0" y="-2" width="1440" height="915">
<rect y="-2" width="1440" height="915" fill="white"/>
</mask>
<g mask="url(#mask0_546_14267)">
<path d="M1365.65 331.326C1371.57 331.326 1376.36 326.548 1376.36 320.655C1376.36 314.761 1371.57 309.984 1365.65 309.984C1359.74 309.984 1354.95 314.761 1354.95 320.655C1354.95 326.548 1359.74 331.326 1365.65 331.326Z" fill="#573FEB"/>
<path d="M1376.4 320.686C1376.4 320.686 1380.12 321.128 1379.99 325.648C1379.87 330.166 1369.32 330.16 1362.36 326.181C1355.4 322.202 1347.88 322.7 1349.26 317.91C1350.64 313.121 1356.48 315.031 1356.48 315.031" stroke="#B2F6DD" stroke-width="0.483022"/>
<path d="M1361.66 314.914C1361.34 314.227 1360.99 313.785 1360.75 313.533C1361.86 312.882 1362.82 312.636 1362.82 312.636C1364.03 312.943 1363.98 313.975 1363.98 313.975C1363.1 314.171 1362.34 314.509 1361.66 314.914Z" fill="#B3B8FD"/>
<path d="M1357.8 316.726C1358.25 315.663 1358.95 314.853 1359.7 314.245C1360.02 314.7 1360.44 315.209 1360.75 315.565C1357.71 318.083 1357.23 322.343 1357.23 322.343C1357.05 321.717 1356.75 319.305 1357.8 316.726Z" fill="#B3B8FD"/>
<path d="M860.81 313.76C863.687 313.76 866.019 311.436 866.019 308.568C866.019 305.699 863.687 303.375 860.81 303.375C857.933 303.375 855.6 305.699 855.6 308.568C855.6 311.436 857.933 313.76 860.81 313.76Z" fill="#BDEEED"/>
<path d="M1412.32 587.582L1289.56 569.762L1138.77 561.706C1138.77 561.706 1045.36 566.122 992.432 571.874C939.517 577.626 778.517 621.121 778.517 621.121L603.539 677.881C603.539 677.881 537.835 695.685 509.817 702.29C487.524 707.546 465.946 708.709 450.78 706.347C450.394 705.573 449.901 704.717 449.287 703.757C437.35 685.055 448.301 661.683 448.301 661.683L445.234 643.707L444.008 637.084L430.794 650.875C430.794 650.875 426.697 681.932 427.599 693.343C427.746 695.257 428.799 697.344 430.376 699.399C422.548 695.271 418.491 691.365 418.491 691.365C418.491 691.365 421.718 722.223 428.457 725.927C434.472 729.233 446.781 736.693 504.259 730.51C581.235 722.239 869.182 592.883 1080.47 580.417C1291.76 567.952 1487.15 615.328 1487.15 615.328L1486.06 610.45L1412.34 587.593L1412.32 587.582Z" fill="#46C9C1"/>
<path d="M423.099 662.82C430.792 652.994 427.449 630.672 427.449 630.672L391.622 626.139L195.549 642.812L-25.633 680.049C-25.633 680.049 -142.786 720.631 -151.507 733.177C-160.23 745.722 -136.468 777.12 -134.229 760.395C-131.991 743.67 -100.891 722.757 31.0935 693.853C163.079 664.961 392.974 646.443 411.403 647.357C429.829 648.27 423.099 662.82 423.099 662.82Z" fill="#46C9C1"/>
<path d="M1490.47 605.956C1410.02 587.656 1327.25 577.499 1244.46 572.631C1182.35 569.176 1119.79 569.444 1057.86 574.162C937.726 583.725 822.45 616.716 709.822 652.339C653.312 669.98 577.815 696.302 520.645 709.395C488.626 716.256 413.405 732.344 418.243 683.827C418.672 679.71 419.581 675.898 420.557 672.18C422.32 663.92 431.659 642.663 425.977 637.565C424.395 636.261 421.788 635.938 419.33 635.591C415.591 635.278 411.856 635.347 408.033 635.421C391.679 635.839 375.068 636.986 358.687 638.215C276.046 644.752 191.22 654.56 109.572 667.136C44.7644 677.517 -17.8597 688.689 -79.9016 707.829C-100.029 714.406 -31.7745 673.043 9.46735 665.019C124.012 643.862 240.333 631.021 357.079 622.788C373.921 621.744 390.561 620.715 407.541 620.467C421.204 620.112 437.572 621.096 442.999 634.369C448.801 649.318 435.933 669.917 434.321 685.333C433.795 690.647 433.852 695.77 438.448 699.158C440.611 700.752 443.768 701.825 446.603 702.469C453.625 704.083 461.617 704.103 469.054 703.811C501.299 701.881 533.312 693.259 564.252 684.785C611.63 671.391 658.231 656.114 705.256 641.603C787.684 616.076 871.315 592.311 957.363 577.436C1010.62 567.91 1065.15 563.1 1119.52 561.81C1236.59 559.108 1354.21 569.53 1468.62 592.105C1476.82 593.763 1484.92 595.467 1493.15 597.418L1490.46 605.945L1490.47 605.956Z" fill="#B2F6DD"/>
<path d="M956.477 376.07C957.784 376.07 958.844 375.013 958.844 373.71C958.844 372.406 957.784 371.35 956.477 371.35C955.169 371.35 954.108 372.406 954.108 373.71C954.108 375.013 955.169 376.07 956.477 376.07Z" fill="#FCFF83"/>
<path d="M51.3969 211.14C52.7037 211.14 53.7642 210.083 53.7642 208.78C53.7642 207.476 52.7037 206.42 51.3969 206.42C50.0888 206.42 49.0283 207.476 49.0283 208.78C49.0283 210.083 50.0888 211.14 51.3969 211.14Z" fill="#FCFF83"/>
<path d="M1198.01 163.648C1200.37 163.648 1202.28 161.746 1202.28 159.399C1202.28 157.053 1200.37 155.151 1198.01 155.151C1195.66 155.151 1193.75 157.053 1193.75 159.399C1193.75 161.746 1195.66 163.648 1198.01 163.648Z" fill="#FCFF83"/>
<path d="M932.796 412.89C935.673 412.89 938.006 410.565 938.006 407.698C938.006 404.83 935.673 402.505 932.796 402.505C929.919 402.505 927.587 404.83 927.587 407.698C927.587 410.565 929.919 412.89 932.796 412.89Z" fill="#573FEB"/>
<path d="M1279.44 749.975C1282.32 749.975 1284.65 747.651 1284.65 744.783C1284.65 741.916 1282.32 739.591 1279.44 739.591C1276.57 739.591 1274.23 741.916 1274.23 744.783C1274.23 747.651 1276.57 749.975 1279.44 749.975Z" fill="#573FEB"/>
<path d="M175.881 44.5033C178.758 44.5033 181.09 42.1786 181.09 39.311C181.09 36.4433 178.758 34.1187 175.881 34.1187C173.003 34.1187 170.671 36.4433 170.671 39.311C170.671 42.1786 173.003 44.5033 175.881 44.5033Z" fill="#573FEB"/>
<path d="M979.209 115.498C982.086 115.498 984.419 113.173 984.419 110.305C984.419 107.438 982.086 105.113 979.209 105.113C976.331 105.113 973.999 107.438 973.999 110.305C973.999 113.173 976.331 115.498 979.209 115.498Z" fill="#BDEEED"/>
<path d="M305.242 436.933C308.119 436.933 310.451 434.608 310.451 431.74C310.451 428.873 308.119 426.548 305.242 426.548C302.364 426.548 300.031 428.873 300.031 431.74C300.031 434.608 302.364 436.933 305.242 436.933Z" fill="#BDEEED"/>
<path d="M1169.05 902.165C1170.36 902.165 1171.42 901.108 1171.42 899.804C1171.42 898.5 1170.36 897.444 1169.05 897.444C1167.75 897.444 1166.69 898.5 1166.69 899.804C1166.69 901.108 1167.75 902.165 1169.05 902.165Z" fill="#FCFF83"/>
<path d="M1410.59 689.742C1412.94 689.742 1414.85 687.84 1414.85 685.494C1414.85 683.147 1412.94 681.245 1410.59 681.245C1408.24 681.245 1406.33 683.147 1406.33 685.494C1406.33 687.84 1408.24 689.742 1410.59 689.742Z" fill="#FCFF83"/>
<path d="M1191.79 641.592C1194.66 641.592 1197 639.267 1197 636.4C1197 633.532 1194.66 631.207 1191.79 631.207C1188.91 631.207 1186.58 633.532 1186.58 636.4C1186.58 639.267 1188.91 641.592 1191.79 641.592Z" fill="#BDEEED"/>
<path d="M1180.96 123.995C1182.27 123.995 1183.33 122.939 1183.33 121.635C1183.33 120.331 1182.27 119.274 1180.96 119.274C1179.66 119.274 1178.6 120.331 1178.6 121.635C1178.6 122.939 1179.66 123.995 1180.96 123.995Z" fill="#FCFF83"/>
<path d="M289.053 450.045C290.361 450.045 291.422 448.989 291.422 447.686C291.422 446.382 290.361 445.325 289.053 445.325C287.746 445.325 286.686 446.382 286.686 447.686C286.686 448.989 287.746 450.045 289.053 450.045Z" fill="#FCFF83"/>
</g>
<path d="M385.499 591C391.299 591 396 586.299 396 580.501C396 574.701 391.299 570 385.499 570C379.701 570 375 574.701 375 580.501C375 586.299 379.701 591 385.499 591Z" fill="#573FEB"/>
<path d="M396.4 580.843C396.4 580.843 400.126 581.272 399.997 585.65C399.867 590.029 389.298 590.023 382.313 586.168C375.329 582.312 367.781 582.795 369.166 578.154C370.55 573.514 376.417 575.364 376.417 575.364" stroke="#B2F6DD" stroke-width="0.483022"/>
<path d="M907.501 834C913.299 834 918 829.299 918 823.501C918 817.701 913.299 813 907.501 813C901.701 813 897 817.701 897 823.501C897 829.299 901.701 834 907.501 834Z" fill="#E97885"/>
<path d="M918.4 822.843C918.4 822.843 922.127 823.272 921.997 827.65C921.867 832.029 911.298 832.023 904.313 828.168C897.329 824.312 889.781 824.795 891.166 820.154C892.55 815.514 898.417 817.364 898.417 817.364" stroke="#FBFCEC" stroke-width="0.483022"/>
<path d="M903.855 817C903.554 816.396 903.228 816.008 903 815.787C904.033 815.215 904.922 815 904.922 815C906.046 815.269 906 816.175 906 816.175C905.178 816.348 904.477 816.644 903.855 817Z" fill="#FFD6D6"/>
<path d="M899.818 819.45C900.292 818.401 901.059 817.601 901.872 817C902.22 817.449 902.672 817.953 903 818.304C899.726 820.791 899.198 825 899.198 825C899.005 824.381 898.672 821.998 899.818 819.45Z" fill="#FFD6D6"/>
<path d="M1320.5 628C1326.3 628 1331 623.299 1331 617.501C1331 611.701 1326.3 607 1320.5 607C1314.7 607 1310 611.701 1310 617.501C1310 623.299 1314.7 628 1320.5 628Z" fill="#E97885"/>
<path d="M1331.4 616.843C1331.4 616.843 1335.13 617.272 1335 621.65C1334.87 626.029 1324.3 626.023 1317.31 622.168C1310.33 618.312 1302.78 618.795 1304.17 614.154C1305.55 609.514 1311.42 611.364 1311.42 611.364" stroke="#FBFCEC" stroke-width="0.483022"/>
<path d="M1316.86 611C1316.55 610.396 1316.23 610.008 1316 609.787C1317.03 609.215 1317.92 609 1317.92 609C1319.05 609.269 1319 610.175 1319 610.175C1318.18 610.348 1317.48 610.644 1316.86 611Z" fill="#FFD6D6"/>
<path d="M1312.82 613.45C1313.29 612.401 1314.06 611.601 1314.87 611C1315.22 611.449 1315.67 611.953 1316 612.304C1312.73 614.791 1312.2 619 1312.2 619C1312.01 618.381 1311.67 615.998 1312.82 613.45Z" fill="#FFD6D6"/>
<path d="M98.5006 146C104.299 146 109 141.299 109 135.501C109 129.701 104.299 125 98.5006 125C92.7007 125 88 129.701 88 135.501C88 141.299 92.7007 146 98.5006 146Z" fill="#E97885"/>
<path d="M109.4 135.843C109.4 135.843 113.127 136.272 112.997 140.65C112.867 145.029 102.298 145.023 95.3125 141.168C88.3287 137.312 80.7813 137.795 82.1656 133.154C83.55 128.514 89.4166 130.364 89.4166 130.364" stroke="#FBFCEC" stroke-width="0.483022"/>
<path d="M94.8551 130C94.5536 129.396 94.2284 129.008 94 128.787C95.0329 128.215 95.9218 128 95.9218 128C97.0459 128.269 96.9997 129.175 96.9997 129.175C96.1784 129.348 95.4774 129.644 94.8551 130Z" fill="#FFD6D6"/>
<path d="M90.8182 131.45C91.292 130.401 92.0591 129.601 92.8723 129C93.2197 129.449 93.6724 129.953 94 130.304C90.7261 132.791 90.1985 137 90.1985 137C90.005 136.381 89.6721 133.998 90.8182 131.45Z" fill="#FFD6D6"/>
<path d="M101 760C102.657 760 104 758.657 104 757C104 755.344 102.657 754 101 754C99.3431 754 98 755.344 98 757C98 758.657 99.3431 760 101 760Z" fill="#FCFF83"/>
<path d="M514.499 771C518.089 771 521 767.866 521 764C521 760.134 518.089 757 514.499 757C510.909 757 508 760.134 508 764C508 767.866 510.909 771 514.499 771Z" fill="#BDEEED"/>
<path d="M464.499 111C468.089 111 471 107.866 471 104C471 100.134 468.089 97 464.499 97C460.909 97 458 100.134 458 104C458 107.866 460.909 111 464.499 111Z" fill="#BDEEED"/>
<path d="M483 620C485.761 620 488 617.761 488 615C488 612.238 485.761 610 483 610C480.239 610 478 612.238 478 615C478 617.761 480.239 620 483 620Z" fill="#FFD6D6"/>
<path d="M133 356C135.761 356 138 353.761 138 351C138 348.238 135.761 346 133 346C130.239 346 128 348.238 128 351C128 353.761 130.239 356 133 356Z" fill="#FFD6D6"/>
<path d="M625 340C627.761 340 630 337.761 630 335C630 332.238 627.761 330 625 330C622.239 330 620 332.238 620 335C620 337.761 622.239 340 625 340Z" fill="#FFD6D6"/>
<path d="M757.501 736C759.985 736 762 734.21 762 731.999C762 729.79 759.985 728 757.501 728C755.015 728 753 729.79 753 731.999C753 734.21 755.015 736 757.501 736Z" fill="#FCFF83"/>
<rect y="-2" width="1440" height="915" fill="#17204E" stroke="#17204E"/>
<mask id="mask1_546_14267" style="mask-type:luminance" maskUnits="userSpaceOnUse" x="0" y="-2" width="1440" height="915">
<rect y="-2" width="1440" height="915" fill="white"/>
</mask>
<g mask="url(#mask1_546_14267)">
<path d="M1365.65 331.326C1371.57 331.326 1376.36 326.548 1376.36 320.655C1376.36 314.761 1371.57 309.984 1365.65 309.984C1359.74 309.984 1354.95 314.761 1354.95 320.655C1354.95 326.548 1359.74 331.326 1365.65 331.326Z" fill="#573FEB"/>
<path d="M1376.4 320.686C1376.4 320.686 1380.12 321.128 1379.99 325.648C1379.87 330.166 1369.32 330.16 1362.36 326.181C1355.4 322.202 1347.88 322.7 1349.26 317.91C1350.64 313.121 1356.48 315.031 1356.48 315.031" stroke="#B2F6DD" stroke-width="0.483022"/>
<path d="M1361.66 314.914C1361.34 314.227 1360.99 313.785 1360.75 313.533C1361.86 312.882 1362.82 312.636 1362.82 312.636C1364.03 312.943 1363.98 313.975 1363.98 313.975C1363.1 314.171 1362.34 314.509 1361.66 314.914Z" fill="#B3B8FD"/>
<path d="M1357.8 316.726C1358.25 315.663 1358.95 314.853 1359.7 314.245C1360.02 314.7 1360.44 315.209 1360.75 315.565C1357.71 318.083 1357.23 322.343 1357.23 322.343C1357.05 321.717 1356.75 319.305 1357.8 316.726Z" fill="#B3B8FD"/>
<path d="M860.81 313.76C863.687 313.76 866.019 311.436 866.019 308.568C866.019 305.699 863.687 303.375 860.81 303.375C857.933 303.375 855.6 305.699 855.6 308.568C855.6 311.436 857.933 313.76 860.81 313.76Z" fill="#BDEEED"/>
<path d="M1412.32 587.582L1289.56 569.762L1138.77 561.706C1138.77 561.706 1045.36 566.122 992.432 571.874C939.517 577.626 778.517 621.121 778.517 621.121L603.539 677.881C603.539 677.881 537.835 695.685 509.817 702.29C487.524 707.546 465.946 708.709 450.78 706.347C450.394 705.573 449.901 704.717 449.287 703.757C437.35 685.055 448.301 661.683 448.301 661.683L445.234 643.707L444.008 637.084L430.794 650.875C430.794 650.875 426.697 681.932 427.599 693.343C427.746 695.257 428.799 697.344 430.376 699.399C422.548 695.271 418.491 691.365 418.491 691.365C418.491 691.365 421.718 722.223 428.457 725.927C434.472 729.233 446.781 736.693 504.259 730.51C581.235 722.239 869.182 592.883 1080.47 580.417C1291.76 567.952 1487.15 615.328 1487.15 615.328L1486.06 610.45L1412.34 587.593L1412.32 587.582Z" fill="#46C9C1"/>
<path d="M423.099 662.82C430.792 652.994 427.449 630.672 427.449 630.672L391.622 626.139L195.549 642.812L-25.633 680.049C-25.633 680.049 -142.786 720.631 -151.507 733.177C-160.23 745.722 -136.468 777.12 -134.229 760.395C-131.991 743.67 -100.891 722.757 31.0935 693.853C163.079 664.961 392.974 646.443 411.403 647.357C429.829 648.27 423.099 662.82 423.099 662.82Z" fill="#46C9C1"/>
<path d="M1490.47 605.956C1410.02 587.656 1327.25 577.499 1244.46 572.631C1182.35 569.176 1119.79 569.444 1057.86 574.162C937.726 583.725 822.45 616.716 709.822 652.339C653.312 669.98 577.815 696.302 520.645 709.395C488.626 716.256 413.405 732.344 418.243 683.827C418.672 679.71 419.581 675.898 420.557 672.18C422.32 663.92 431.659 642.663 425.977 637.565C424.395 636.261 421.788 635.938 419.33 635.591C415.591 635.278 411.856 635.347 408.033 635.421C391.679 635.839 375.068 636.986 358.687 638.215C276.046 644.752 191.22 654.56 109.572 667.136C44.7644 677.517 -17.8597 688.689 -79.9016 707.829C-100.029 714.406 -31.7745 673.043 9.46735 665.019C124.012 643.862 240.333 631.021 357.079 622.788C373.921 621.744 390.561 620.715 407.541 620.467C421.204 620.112 437.572 621.096 442.999 634.369C448.801 649.318 435.933 669.917 434.321 685.333C433.795 690.647 433.852 695.77 438.448 699.158C440.611 700.752 443.768 701.825 446.603 702.469C453.625 704.083 461.617 704.103 469.054 703.811C501.299 701.881 533.312 693.259 564.252 684.785C611.63 671.391 658.231 656.114 705.256 641.603C787.684 616.076 871.315 592.311 957.363 577.436C1010.62 567.91 1065.15 563.1 1119.52 561.81C1236.59 559.108 1354.21 569.53 1468.62 592.105C1476.82 593.763 1484.92 595.467 1493.15 597.418L1490.46 605.945L1490.47 605.956Z" fill="#B2F6DD"/>
<path d="M956.477 376.07C957.784 376.07 958.844 375.013 958.844 373.71C958.844 372.406 957.784 371.35 956.477 371.35C955.169 371.35 954.108 372.406 954.108 373.71C954.108 375.013 955.169 376.07 956.477 376.07Z" fill="#FCFF83"/>
<path d="M51.3969 211.14C52.7037 211.14 53.7642 210.083 53.7642 208.78C53.7642 207.476 52.7037 206.42 51.3969 206.42C50.0888 206.42 49.0283 207.476 49.0283 208.78C49.0283 210.083 50.0888 211.14 51.3969 211.14Z" fill="#FCFF83"/>
<path d="M1198.01 163.648C1200.37 163.648 1202.28 161.746 1202.28 159.399C1202.28 157.053 1200.37 155.151 1198.01 155.151C1195.66 155.151 1193.75 157.053 1193.75 159.399C1193.75 161.746 1195.66 163.648 1198.01 163.648Z" fill="#FCFF83"/>
<path d="M932.796 412.89C935.673 412.89 938.006 410.565 938.006 407.698C938.006 404.83 935.673 402.505 932.796 402.505C929.919 402.505 927.587 404.83 927.587 407.698C927.587 410.565 929.919 412.89 932.796 412.89Z" fill="#573FEB"/>
<path d="M1279.44 749.975C1282.32 749.975 1284.65 747.651 1284.65 744.783C1284.65 741.916 1282.32 739.591 1279.44 739.591C1276.57 739.591 1274.23 741.916 1274.23 744.783C1274.23 747.651 1276.57 749.975 1279.44 749.975Z" fill="#573FEB"/>
<path d="M175.881 44.5033C178.758 44.5033 181.09 42.1786 181.09 39.311C181.09 36.4433 178.758 34.1187 175.881 34.1187C173.003 34.1187 170.671 36.4433 170.671 39.311C170.671 42.1786 173.003 44.5033 175.881 44.5033Z" fill="#573FEB"/>
<path d="M979.209 115.498C982.086 115.498 984.419 113.173 984.419 110.305C984.419 107.438 982.086 105.113 979.209 105.113C976.331 105.113 973.999 107.438 973.999 110.305C973.999 113.173 976.331 115.498 979.209 115.498Z" fill="#BDEEED"/>
<path d="M305.242 436.933C308.119 436.933 310.451 434.608 310.451 431.74C310.451 428.873 308.119 426.548 305.242 426.548C302.364 426.548 300.031 428.873 300.031 431.74C300.031 434.608 302.364 436.933 305.242 436.933Z" fill="#BDEEED"/>
<path d="M1169.05 902.165C1170.36 902.165 1171.42 901.108 1171.42 899.804C1171.42 898.5 1170.36 897.444 1169.05 897.444C1167.75 897.444 1166.69 898.5 1166.69 899.804C1166.69 901.108 1167.75 902.165 1169.05 902.165Z" fill="#FCFF83"/>
<path d="M1410.59 689.742C1412.94 689.742 1414.85 687.84 1414.85 685.494C1414.85 683.147 1412.94 681.245 1410.59 681.245C1408.24 681.245 1406.33 683.147 1406.33 685.494C1406.33 687.84 1408.24 689.742 1410.59 689.742Z" fill="#FCFF83"/>
<path d="M1191.79 641.592C1194.66 641.592 1197 639.267 1197 636.4C1197 633.532 1194.66 631.207 1191.79 631.207C1188.91 631.207 1186.58 633.532 1186.58 636.4C1186.58 639.267 1188.91 641.592 1191.79 641.592Z" fill="#BDEEED"/>
<path d="M1180.96 123.995C1182.27 123.995 1183.33 122.939 1183.33 121.635C1183.33 120.331 1182.27 119.274 1180.96 119.274C1179.66 119.274 1178.6 120.331 1178.6 121.635C1178.6 122.939 1179.66 123.995 1180.96 123.995Z" fill="#FCFF83"/>
<path d="M289.053 450.045C290.361 450.045 291.422 448.989 291.422 447.686C291.422 446.382 290.361 445.325 289.053 445.325C287.746 445.325 286.686 446.382 286.686 447.686C286.686 448.989 287.746 450.045 289.053 450.045Z" fill="#FCFF83"/>
</g>
<path d="M907.501 834C913.299 834 918 829.299 918 823.501C918 817.701 913.299 813 907.501 813C901.701 813 897 817.701 897 823.501C897 829.299 901.701 834 907.501 834Z" fill="#E97885"/>
<path d="M918.4 822.843C918.4 822.843 922.127 823.272 921.997 827.65C921.867 832.029 911.298 832.023 904.313 828.168C897.329 824.312 889.781 824.795 891.166 820.154C892.55 815.514 898.417 817.364 898.417 817.364" stroke="#FBFCEC" stroke-width="0.483022"/>
<path d="M903.855 817C903.554 816.396 903.228 816.008 903 815.787C904.033 815.215 904.922 815 904.922 815C906.046 815.269 906 816.175 906 816.175C905.178 816.348 904.477 816.644 903.855 817Z" fill="#FFD6D6"/>
<path d="M899.818 819.45C900.292 818.401 901.059 817.601 901.872 817C902.22 817.449 902.672 817.953 903 818.304C899.726 820.791 899.198 825 899.198 825C899.005 824.381 898.672 821.998 899.818 819.45Z" fill="#FFD6D6"/>
<path d="M1320.5 628C1326.3 628 1331 623.299 1331 617.501C1331 611.701 1326.3 607 1320.5 607C1314.7 607 1310 611.701 1310 617.501C1310 623.299 1314.7 628 1320.5 628Z" fill="#E97885"/>
<path d="M1331.4 616.843C1331.4 616.843 1335.13 617.272 1335 621.65C1334.87 626.029 1324.3 626.023 1317.31 622.168C1310.33 618.312 1302.78 618.795 1304.17 614.154C1305.55 609.514 1311.42 611.364 1311.42 611.364" stroke="#FBFCEC" stroke-width="0.483022"/>
<path d="M1316.86 611C1316.55 610.396 1316.23 610.008 1316 609.787C1317.03 609.215 1317.92 609 1317.92 609C1319.05 609.269 1319 610.175 1319 610.175C1318.18 610.348 1317.48 610.644 1316.86 611Z" fill="#FFD6D6"/>
<path d="M1312.82 613.45C1313.29 612.401 1314.06 611.601 1314.87 611C1315.22 611.449 1315.67 611.953 1316 612.304C1312.73 614.791 1312.2 619 1312.2 619C1312.01 618.381 1311.67 615.998 1312.82 613.45Z" fill="#FFD6D6"/>
<path d="M98.5006 146C104.299 146 109 141.299 109 135.501C109 129.701 104.299 125 98.5006 125C92.7007 125 88 129.701 88 135.501C88 141.299 92.7007 146 98.5006 146Z" fill="#E97885"/>
<path d="M109.4 135.843C109.4 135.843 113.127 136.272 112.997 140.65C112.867 145.029 102.298 145.023 95.3125 141.168C88.3287 137.312 80.7813 137.795 82.1656 133.154C83.55 128.514 89.4166 130.364 89.4166 130.364" stroke="#FBFCEC" stroke-width="0.483022"/>
<path d="M94.8551 130C94.5536 129.396 94.2284 129.008 94 128.787C95.0329 128.215 95.9218 128 95.9218 128C97.0459 128.269 96.9997 129.175 96.9997 129.175C96.1784 129.348 95.4774 129.644 94.8551 130Z" fill="#FFD6D6"/>
<path d="M90.8182 131.45C91.292 130.401 92.0591 129.601 92.8723 129C93.2197 129.449 93.6724 129.953 94 130.304C90.7261 132.791 90.1985 137 90.1985 137C90.005 136.381 89.6721 133.998 90.8182 131.45Z" fill="#FFD6D6"/>
<path d="M101 760C102.657 760 104 758.657 104 757C104 755.344 102.657 754 101 754C99.3431 754 98 755.344 98 757C98 758.657 99.3431 760 101 760Z" fill="#FCFF83"/>
<path d="M514.499 771C518.089 771 521 767.866 521 764C521 760.134 518.089 757 514.499 757C510.909 757 508 760.134 508 764C508 767.866 510.909 771 514.499 771Z" fill="#BDEEED"/>
<path d="M464.499 111C468.089 111 471 107.866 471 104C471 100.134 468.089 97 464.499 97C460.909 97 458 100.134 458 104C458 107.866 460.909 111 464.499 111Z" fill="#BDEEED"/>
<path d="M1320.5 199C1324.09 199 1327 195.866 1327 192C1327 188.134 1324.09 185 1320.5 185C1316.91 185 1314 188.134 1314 192C1314 195.866 1316.91 199 1320.5 199Z" fill="#BDEEED"/>
<path d="M133 356C135.761 356 138 353.761 138 351C138 348.238 135.761 346 133 346C130.239 346 128 348.238 128 351C128 353.761 130.239 356 133 356Z" fill="#FFD6D6"/>
<path d="M757.501 736C759.985 736 762 734.21 762 731.999C762 729.79 759.985 728 757.501 728C755.015 728 753 729.79 753 731.999C753 734.21 755.015 736 757.501 736Z" fill="#FCFF83"/>
<path d="M759 67C761.761 67 764 64.7608 764 62C764 59.238 761.761 57 759 57C756.239 57 754 59.238 754 62C754 64.7608 756.239 67 759 67Z" fill="#FFD6D6"/>
<path d="M262 210C264.761 210 267 207.761 267 205C267 202.238 264.761 200 262 200C259.239 200 257 202.238 257 205C257 207.761 259.239 210 262 210Z" fill="#FFD6D6"/>
<path d="M181.499 577C187.299 577 192 572.299 192 566.501C192 560.701 187.299 556 181.499 556C175.701 556 171 560.701 171 566.501C171 572.299 175.701 577 181.499 577Z" fill="#573FEB"/>
<path d="M192.4 566.843C192.4 566.843 196.126 567.272 195.997 571.65C195.867 576.029 185.298 576.023 178.313 572.168C171.329 568.312 163.781 568.795 165.166 564.154C166.55 559.514 172.417 561.364 172.417 561.364" stroke="#B2F6DD" stroke-width="0.483022"/>
<path d="M573.555 77.3423C579.473 77.3423 584.268 72.5641 584.268 66.6712C584.268 60.777 579.473 56 573.555 56C567.649 56 562.854 60.777 562.854 66.6712C562.854 72.5641 567.649 77.3423 573.555 77.3423Z" fill="#573FEB"/>
<path d="M584.305 66.7025C584.305 66.7025 588.025 67.1443 587.892 71.6637C587.771 76.1818 577.227 76.1758 570.27 72.197C563.3 68.2182 555.788 68.7166 557.165 63.9264C558.542 59.1373 564.387 61.0467 564.387 61.0467" stroke="#B2F6DD" stroke-width="0.483022"/>
<path d="M224.209 311.385C227.086 311.385 229.419 309.06 229.419 306.192C229.419 303.325 227.086 301 224.209 301C221.332 301 219 303.325 219 306.192C219 309.06 221.332 311.385 224.209 311.385Z" fill="#573FEB"/>
<path d="M1305.21 445.385C1308.09 445.385 1310.42 443.06 1310.42 440.192C1310.42 437.325 1308.09 435 1305.21 435C1302.33 435 1300 437.325 1300 440.192C1300 443.06 1302.33 445.385 1305.21 445.385Z" fill="#573FEB"/>
<path d="M289.262 77.497C291.616 77.497 293.525 75.5948 293.525 73.2485C293.525 70.9021 291.616 69 289.262 69C286.908 69 285 70.9021 285 73.2485C285 75.5948 286.908 77.497 289.262 77.497Z" fill="#FCFF83"/>
<path d="M1207 366C1209.76 366 1212 363.761 1212 361C1212 358.238 1209.76 356 1207 356C1204.24 356 1202 358.238 1202 361C1202 363.761 1204.24 366 1207 366Z" fill="#FFD6D6"/>
</svg>
