<svg xmlns="http://www.w3.org/2000/svg" xmlns:xlink="http://www.w3.org/1999/xlink" width="48" zoomAndPan="magnify" viewBox="0 0 36 36.000001" height="48" preserveAspectRatio="xMidYMid meet" version="1.0"><defs><clipPath id="87259b0160"><path d="M 0.488281 0 L 17 0 L 17 17 L 0.488281 17 Z M 0.488281 0 " clip-rule="nonzero"/></clipPath><clipPath id="ed244d00d1"><path d="M 0.488281 18 L 22 18 L 22 35 L 0.488281 35 Z M 0.488281 18 " clip-rule="nonzero"/></clipPath><clipPath id="31612f961d"><path d="M 14 0 L 34.785156 0 L 34.785156 17 L 14 17 Z M 14 0 " clip-rule="nonzero"/></clipPath><clipPath id="22373744cf"><path d="M 18 18 L 34.785156 18 L 34.785156 35 L 18 35 Z M 18 18 " clip-rule="nonzero"/></clipPath></defs><g clip-path="url(#87259b0160)"><path fill="#9823c6" d="M 11.117188 10.832031 C 11.519531 10.421875 11.8125 10.035156 12.003906 9.671875 L 16.726562 0.839844 C 16.921875 0.476562 16.960938 0.238281 16.84375 0.125 C 16.734375 0.00390625 16.5 0.0429688 16.136719 0.246094 L 7.546875 5.105469 C 7.1875 5.3125 6.8125 5.617188 6.429688 6.011719 C 6.027344 6.421875 5.734375 6.808594 5.542969 7.171875 L 0.808594 15.980469 C 0.605469 16.339844 0.5625 16.582031 0.679688 16.703125 C 0.789062 16.816406 1.023438 16.773438 1.386719 16.570312 L 9.996094 11.738281 C 10.359375 11.527344 10.730469 11.226562 11.117188 10.832031 Z M 11.117188 10.832031 " fill-opacity="1" fill-rule="evenodd"/></g><path fill="#ffc34e" d="M 31.058594 14.140625 C 30.996094 13.671875 30.816406 13.289062 30.527344 12.992188 L 22.054688 4.308594 C 21.765625 4.011719 21.449219 3.886719 21.113281 3.933594 C 20.769531 3.984375 20.496094 4.191406 20.300781 4.5625 L 15.5625 13.378906 C 15.367188 13.742188 15.304688 14.160156 15.375 14.636719 C 15.4375 15.101562 15.609375 15.484375 15.894531 15.785156 L 24.363281 24.457031 C 24.648438 24.757812 24.960938 24.878906 25.308594 24.820312 C 25.652344 24.773438 25.921875 24.566406 26.121094 24.203125 L 30.855469 15.394531 C 31.050781 15.023438 31.121094 14.605469 31.058594 14.140625 Z M 31.058594 14.140625 " fill-opacity="1" fill-rule="evenodd"/><g clip-path="url(#ed244d00d1)"><path fill="#ff3e3c" d="M 21.132812 29.054688 C 21.1875 28.699219 21.070312 28.375 20.777344 28.085938 L 12.3125 19.398438 C 12.023438 19.109375 11.648438 18.929688 11.195312 18.867188 C 10.730469 18.792969 10.324219 18.859375 9.96875 19.058594 L 1.367188 23.917969 C 1.015625 24.117188 0.816406 24.394531 0.769531 24.75 C 0.714844 25.097656 0.832031 25.417969 1.121094 25.71875 L 9.59375 34.40625 C 9.882812 34.703125 10.257812 34.882812 10.710938 34.949219 C 11.167969 35.015625 11.574219 34.945312 11.9375 34.742188 L 20.527344 29.886719 C 20.878906 29.683594 21.078125 29.40625 21.125 29.054688 Z M 21.132812 29.054688 " fill-opacity="1" fill-rule="evenodd"/></g><g clip-path="url(#31612f961d)"><path fill="#26c4ff" d="M 34.441406 10.277344 C 34.488281 9.921875 34.371094 9.59375 34.085938 9.296875 L 25.617188 0.621094 C 25.332031 0.324219 24.964844 0.140625 24.511719 0.078125 C 24.046875 0.0117188 23.636719 0.0820312 23.285156 0.28125 L 14.683594 5.128906 C 14.324219 5.332031 14.117188 5.609375 14.070312 5.960938 C 14.023438 6.316406 14.144531 6.644531 14.4375 6.941406 L 22.90625 15.628906 C 23.199219 15.925781 23.570312 16.109375 24.027344 16.171875 C 24.480469 16.238281 24.886719 16.167969 25.238281 15.96875 L 33.828125 11.109375 C 34.191406 10.90625 34.394531 10.632812 34.441406 10.277344 Z M 34.441406 10.277344 " fill-opacity="1" fill-rule="evenodd"/></g><g clip-path="url(#22373744cf)"><path fill="#fe0fa6" d="M 34.535156 18.285156 C 34.425781 18.167969 34.191406 18.207031 33.828125 18.40625 L 25.226562 23.238281 C 24.867188 23.449219 24.488281 23.75 24.097656 24.144531 C 23.703125 24.554688 23.410156 24.945312 23.214844 25.304688 L 18.5 34.140625 C 18.304688 34.5 18.261719 34.742188 18.371094 34.863281 C 18.488281 34.984375 18.722656 34.941406 19.078125 34.730469 L 27.667969 29.875 C 28.019531 29.671875 28.398438 29.371094 28.796875 28.96875 C 29.175781 28.566406 29.476562 28.179688 29.679688 27.808594 L 34.417969 19 C 34.613281 18.636719 34.652344 18.398438 34.535156 18.285156 Z M 34.535156 18.285156 " fill-opacity="1" fill-rule="evenodd"/></g><path fill="#98d843" d="M 19.695312 21.648438 C 19.894531 21.285156 19.960938 20.867188 19.898438 20.390625 C 19.835938 19.925781 19.65625 19.542969 19.367188 19.242188 L 10.894531 10.554688 C 10.605469 10.257812 10.289062 10.136719 9.953125 10.195312 C 9.609375 10.242188 9.335938 10.449219 9.140625 10.808594 L 4.40625 19.628906 C 4.207031 20 4.144531 20.417969 4.214844 20.886719 C 4.277344 21.355469 4.453125 21.738281 4.734375 22.035156 L 13.207031 30.710938 C 13.488281 31.007812 13.800781 31.132812 14.148438 31.085938 C 14.492188 31.035156 14.765625 30.828125 14.960938 30.457031 Z M 19.695312 21.648438 " fill-opacity="1" fill-rule="evenodd"/></svg>