<svg width="270" height="170" viewBox="0 0 270 170" fill="none" xmlns="http://www.w3.org/2000/svg">
<path d="M38.1095 76.2608C38.1095 76.2608 52.7616 74.6698 62.9123 89.5119C73.0631 104.354 69.0278 124.151 57.5243 131.709C46.0209 139.266 27.7769 140.709 17.8875 128.606C7.95277 116.457 6.21366 82.1249 38.1095 76.2608V76.2608Z" fill="#FCFF83"/>
<path d="M35.2931 106.835C32.2506 98.4774 33.9686 90.1796 39.1304 88.3012C44.2922 86.4229 50.9432 91.6753 53.9857 100.033C57.0282 108.39 55.3101 116.688 50.1483 118.566C44.9865 120.445 38.3356 115.192 35.2931 106.835Z" fill="#FBFCEC"/>
<path d="M50.4453 119.163C55.9469 117.162 57.8452 108.457 54.6851 99.7633C53.1733 95.6039 50.7408 92.0468 47.8422 89.7511C44.8413 87.3873 41.6927 86.6259 38.9646 87.6146C36.2365 88.6033 34.3155 91.2058 33.5425 94.9561C32.7923 98.5814 33.2128 102.866 34.7246 107.025C36.2364 111.185 38.669 114.742 41.5676 117.037C42.7952 118.015 44.057 118.708 45.296 119.129C47.0806 119.731 48.8311 119.754 50.4339 119.174L50.4453 119.163ZM46.9897 90.8194C49.695 92.9559 51.9798 96.2971 53.4007 100.229C56.3106 108.219 54.7761 116.151 49.9678 117.901C47.7058 118.731 45.0118 118.049 42.3973 115.981C39.692 113.844 37.4072 110.503 35.9863 106.571C34.5541 102.65 34.1562 98.6155 34.8496 95.2402C35.5203 91.9786 37.1458 89.7284 39.4078 88.8988C40.715 88.4215 42.1586 88.4442 43.6591 88.9556C44.7503 89.3193 45.8757 89.9557 46.9783 90.8308L46.9897 90.8194Z" fill="#17204E"/>
<path d="M50.1244 98.1058C50.1244 98.1058 44.4408 94.4918 40.8489 101.47C37.2455 108.447 47.2145 118.732 47.6237 118.767C52.341 119.187 58.9793 113.573 50.1244 98.0944V98.1058Z" fill="#17204E"/>
<path d="M85.4776 72.0789L44.4312 88.2393C44.4312 88.2393 37.2131 94.0125 41.1234 103.343C45.045 112.673 50.2397 117.333 54.741 116.742L97.0151 105.013" fill="#B3B8FD"/>
<path d="M51.5347 117.197C47.4199 115.81 43.4301 111.026 40.3382 103.673C36.2234 93.8652 43.8165 87.6488 43.8961 87.592L44.112 87.467L85.1582 71.3065L85.7721 72.8748L44.8509 88.9785C44.0211 89.6944 38.4627 94.8653 41.8841 103.025C45.4647 111.537 50.3411 116.481 54.6037 115.913L96.764 104.207L97.2188 105.832L54.9448 117.56C53.8081 117.72 52.66 117.595 51.5233 117.208L51.5347 117.197Z" fill="#17204E"/>
<path d="M143.494 45.6113L86.4313 68.0677C86.4313 68.0677 76.3943 76.0911 81.8391 89.0581C87.2839 102.025 94.5134 108.514 100.765 107.673L159.533 91.3765" fill="#B3B8FD"/>
<path d="M96.4102 108.025C90.8062 106.138 85.3273 99.5467 81.0647 89.3981C75.438 75.9993 85.8047 67.51 85.9071 67.4191L86.1231 67.294L143.174 44.8376L143.788 46.406L86.8505 68.8169C85.8161 69.692 77.6887 77.0562 82.5992 88.7503C87.6348 100.729 94.5347 107.672 100.627 106.854L159.281 90.5801L159.736 92.2052L100.968 108.502C99.4565 108.707 97.9219 108.536 96.3874 108.025H96.4102Z" fill="#17204E"/>
<path d="M226.241 7.31299L145.911 38.9407C145.911 38.9407 131.781 50.2371 139.443 68.5C147.104 86.7629 157.289 95.8886 166.087 94.7181L248.828 71.773" fill="#B3B8FD"/>
<path d="M160.053 94.8658C152.289 92.2406 144.628 83.024 138.66 68.8183C130.839 50.1804 145.23 38.3953 145.378 38.2817L145.594 38.1567L225.925 6.52905L226.538 8.09737L146.321 39.6681C145.025 40.7478 133.124 51.3055 140.194 68.1591C147.344 85.1833 157.211 95.0363 165.941 93.8658L248.568 70.9434L249.022 72.5686L166.282 95.5136C164.213 95.7977 162.11 95.5591 160.03 94.8658H160.053Z" fill="#17204E"/>
<path d="M214.6 47.6659C208.367 29.8709 213.189 11.9877 225.371 7.7226C237.553 3.45749 252.481 14.4256 258.714 32.2206C264.947 50.0155 260.125 67.8987 247.943 72.1638C235.761 76.4289 220.833 65.4608 214.6 47.6659Z" fill="#573FEB"/>
<path d="M248.112 73.045C254.273 70.8858 258.831 65.3967 260.934 57.5665C263.014 49.8613 262.457 40.781 259.388 32.0189C256.319 23.2568 251.079 15.8244 244.645 11.0967C238.12 6.30089 231.13 4.84625 224.969 7.00552C218.808 9.16479 214.25 14.6539 212.147 22.4841C210.067 30.1892 210.624 39.2695 213.693 48.0316C218.092 60.5895 226.799 69.8175 235.915 72.8973C240.019 74.2838 244.202 74.4201 248.112 73.045V73.045ZM215.284 47.4747C212.329 39.0309 211.794 30.3029 213.784 22.9273C215.739 15.6539 219.91 10.574 225.537 8.60793C231.164 6.64186 237.597 8.01696 243.656 12.4719C249.817 16.995 254.841 24.1433 257.797 32.5985C260.752 41.0424 261.286 49.7704 259.297 57.146C257.342 64.4193 253.17 69.4993 247.544 71.4654C235.824 75.568 221.354 64.8057 215.273 47.4861L215.284 47.4747Z" fill="#17204E"/>
<path d="M221.57 13.1762C232.459 9.36909 245.759 19.0858 251.295 34.8826C256.83 50.6794 252.488 66.5784 241.61 70.3855C238.916 71.3288 236.074 71.4424 233.244 70.8401C225.514 67.0103 218.41 58.6573 214.579 47.7359C210.749 36.8146 211.101 25.8591 214.75 18.0403C216.591 15.8014 218.876 14.1195 221.57 13.1762Z" fill="#22294D"/>
<path d="M224.685 15.8924C224.685 15.8924 231.289 13.6649 238.95 19.9041C246.612 26.1319 247.635 31.8824 247.635 31.8824L246.146 31.5642C246.146 31.5642 244.463 26.5524 238.28 21.7565C232.096 16.9493 227.106 19.1313 227.106 19.1313C227.106 19.1313 224.139 17.563 224.673 15.9038L224.685 15.8924Z" fill="#B2F6DD"/>
<path d="M202.397 22.0401L149.621 41.2918C149.621 41.2918 142.505 47.9969 143.71 56.6112C143.71 56.6112 146.54 46.7809 150.712 43.7124C154.883 40.644 202.204 23.0857 202.204 23.0857L202.397 22.0288V22.0401Z" fill="#B2F6DD"/>
<path d="M132.649 54.7826L88.966 70.7158C88.966 70.7158 83.0779 76.2731 84.0782 83.3987C84.0782 83.3987 86.4197 75.2616 89.8753 72.7273C93.3309 70.1816 132.49 55.6577 132.49 55.6577L132.649 54.7826Z" fill="#B2F6DD"/>
<path d="M78.165 78.7625L46.2806 90.3884C46.2806 90.3884 41.9838 94.4456 42.7113 99.6505C42.7113 99.6505 44.4163 93.7183 46.9398 91.8658C49.4633 90.0134 78.0399 79.4102 78.0399 79.4102L78.1537 78.7738L78.165 78.7625Z" fill="#B2F6DD"/>
<path d="M24.8963 128.401C22.8162 127.697 21.509 126.799 20.6906 125.912C18.9628 124.037 19.3266 122.174 19.338 122.094C19.4062 121.776 19.7244 121.56 20.0427 121.628C20.3724 121.696 20.5769 122.014 20.5087 122.333C20.5087 122.378 20.2701 123.719 21.6 125.14C23.7143 127.401 29.5113 129.708 45.0842 127.879C71.3988 124.776 70.069 92.7166 70.0576 92.3984C70.0463 92.0688 70.2963 91.7847 70.626 91.7734C70.9556 91.7506 71.2283 92.012 71.2511 92.3416C71.2738 92.6712 72.6378 125.833 45.2206 129.072C34.8538 130.299 28.6248 129.674 24.8851 128.413L24.8963 128.401Z" fill="#FCFF83"/>
<path d="M1.03123 148.766C0.849358 148.709 0.701626 148.562 0.644791 148.368C-3.81108 132.64 16.2517 117.65 17.1042 117.014C17.377 116.82 17.7409 116.877 17.9341 117.139C18.1273 117.4 18.0704 117.775 17.809 117.968C17.6043 118.116 -2.44704 133.106 1.78149 148.039C1.87243 148.357 1.69057 148.687 1.3723 148.777C1.24726 148.812 1.13366 148.812 1.01999 148.777L1.03123 148.766Z" fill="#FCFF83"/>
<path d="M68.0645 125.971C66.1208 125.312 64.9499 124.789 64.9158 124.766C64.6203 124.63 64.4839 124.278 64.6203 123.971C64.7567 123.675 65.1204 123.539 65.4046 123.675C65.5751 123.755 82.3301 131.267 95.8569 124.914C103.177 121.482 108.281 114.618 111.009 104.515C111.089 104.196 111.418 104.015 111.737 104.094C112.055 104.185 112.237 104.503 112.157 104.821C109.327 115.277 104.007 122.402 96.3457 125.994C85.9108 130.892 73.7026 127.857 68.0532 125.948L68.0645 125.971Z" fill="#FCFF83"/>
<path d="M69.1766 118.957C68.074 118.582 67.392 118.173 67.3238 118.138C67.0396 117.968 66.9486 117.604 67.1191 117.32C67.2896 117.036 67.6535 116.956 67.9377 117.116C67.9718 117.138 71.5864 119.275 75.6558 117.934C79.0204 116.832 81.7713 113.718 83.8515 108.694C83.9765 108.388 84.3175 108.251 84.6244 108.376C84.9313 108.501 85.0791 108.854 84.9427 109.16C82.7261 114.524 79.7139 117.866 76.0082 119.082C73.2801 119.979 70.7794 119.514 69.1653 118.968L69.1766 118.957Z" fill="#FCFF83"/>
<path d="M59.8017 169.85H59.7789C59.472 169.725 59.3129 169.384 59.4266 169.077C64.1212 156.587 63.2345 147.2 61.6545 141.529C59.9495 135.381 57.0963 132.142 57.0736 132.108C56.8576 131.858 56.8804 131.483 57.1191 131.267C57.3692 131.051 57.7443 131.074 57.9602 131.312C58.0853 131.449 60.9952 134.745 62.7798 141.131C64.4167 146.984 65.3602 156.667 60.5406 169.486C60.4269 169.793 60.0972 169.941 59.7903 169.838L59.8017 169.85Z" fill="#FCFF83"/>
<path d="M13.3309 156.575C13.1604 156.518 13.0127 156.382 12.9559 156.189C8.42041 142.063 20.4012 132.3 20.5148 132.21C20.7649 132.005 21.1514 132.039 21.356 132.3C21.5606 132.562 21.5152 132.937 21.2651 133.141C21.1514 133.232 9.81856 142.494 14.0926 155.825C14.1949 156.143 14.0243 156.473 13.706 156.575C13.581 156.621 13.456 156.609 13.3309 156.575V156.575Z" fill="#FCFF83"/>
</svg>
