<svg width="145" height="112" viewBox="0 0 145 112" fill="none" xmlns="http://www.w3.org/2000/svg">
<path d="M50.4573 1.29095C50.4573 1.29095 66.7833 -1.68661 79.384 14.1542C91.9847 29.9951 89.0656 52.5601 76.7644 61.9878C64.4633 71.4154 44.0884 74.5059 31.9943 61.7231C19.8483 48.8873 15.1037 10.4642 50.4573 1.29095V1.29095Z" fill="#FCFF83"/>
<path d="M37.3611 39.6897C37.3611 39.6897 12.2 37.035 10.914 60.6908C9.73533 82.3995 38.3166 97.4981 52.1738 94.0339" stroke="#FCFF83" stroke-width="2" stroke-miterlimit="10" stroke-linecap="round"/>
<path d="M45.5629 53.8433C45.5629 53.8433 17.2024 49.5337 17.2587 73.2093C17.312 94.9365 36.4605 98.336 49.8642 110.2" stroke="#FCFF83" stroke-width="2" stroke-miterlimit="10" stroke-linecap="round"/>
<path d="M29.3513 32.6948C29.3513 32.6948 11.1937 33.473 4.32005 49.0026C-2.38599 64.151 5.14092 71.8421 16.8446 78.4013" stroke="#FCFF83" stroke-width="2" stroke-miterlimit="10" stroke-linecap="round"/>
<path d="M105.007 57.3486C105.007 57.3486 107.893 40.0272 78.5236 49.6209" stroke="#FCFF83" stroke-width="2" stroke-miterlimit="10" stroke-linecap="round"/>
<path d="M47.9747 58.3145C47.9747 58.3145 39.8372 66.9222 49.978 93.5268" stroke="#FCFF83" stroke-width="2" stroke-miterlimit="10" stroke-linecap="round"/>
<path d="M37.3896 39.5169C34.9819 33.9621 35.8101 28.2545 39.2395 26.7686C42.6688 25.2827 47.4006 28.5812 49.8083 34.136C52.2159 39.6908 51.3877 45.3984 47.9584 46.8843C44.5291 48.3702 39.7972 45.0717 37.3896 39.5169Z" fill="white" stroke="#17204E" stroke-miterlimit="10"/>
<path d="M59.1277 31.9232C57.9765 25.9796 60.0178 20.5854 63.6871 19.875C67.3564 19.1645 71.2643 23.4067 72.4155 29.3503C73.5667 35.2939 71.5254 40.688 67.8561 41.3985C64.1868 42.109 60.2789 37.8667 59.1277 31.9232Z" fill="white" stroke="#17204E" stroke-miterlimit="10"/>
<path d="M48.7237 32.899C48.7237 32.899 44.8603 30.4428 42.411 35.19C39.9616 39.9372 46.8769 47.3872 47.1363 47.2756C47.3956 47.1639 54.7559 43.4276 48.7237 32.899V32.899Z" fill="#17204E"/>
<path d="M71.3402 27.799C71.3402 27.799 67.9099 24.7667 64.745 29.0703C61.5801 33.3739 67.2398 41.817 67.5148 41.7466C67.7898 41.6762 75.6432 39.1423 71.3402 27.799Z" fill="#17204E"/>
<path d="M81.9456 46.8435C81.9456 46.8435 103.928 64.0553 121.827 56.5494" stroke="#FCFF83" stroke-width="2" stroke-miterlimit="10" stroke-linecap="round"/>
<path d="M80.0815 36.4627C80.0815 36.4627 91.0932 54.8278 122.835 47.0664C154.575 39.3066 140.303 55.9723 140.303 55.9723" stroke="#FCFF83" stroke-width="2" stroke-miterlimit="10" stroke-linecap="round"/>
</svg>
