<?xml version="1.0" encoding="UTF-8" standalone="no"?>
<svg
   shape-rendering="geometricPrecision"
   text-rendering="geometricPrecision"
   viewBox="0 0 653.9 792.1"
   version="1.1"
   id="svg86"
   sodipodi:docname="workflow.svg"
   inkscape:version="1.4.1 (1:1.4.1+202503302257+93de688d07)"
   xmlns:inkscape="http://www.inkscape.org/namespaces/inkscape"
   xmlns:sodipodi="http://sodipodi.sourceforge.net/DTD/sodipodi-0.dtd"
   xmlns:xlink="http://www.w3.org/1999/xlink"
   xmlns="http://www.w3.org/2000/svg"
   xmlns:svg="http://www.w3.org/2000/svg">
  <sodipodi:namedview
     id="namedview86"
     pagecolor="#ffffff"
     bordercolor="#000000"
     borderopacity="0.25"
     inkscape:showpageshadow="2"
     inkscape:pageopacity="0.0"
     inkscape:pagecheckerboard="0"
     inkscape:deskcolor="#d1d1d1"
     inkscape:zoom="3.1788392"
     inkscape:cx="96.261554"
     inkscape:cy="320.55727"
     inkscape:window-width="1920"
     inkscape:window-height="1131"
     inkscape:window-x="0"
     inkscape:window-y="32"
     inkscape:window-maximized="1"
     inkscape:current-layer="svg86" />
  <defs
     id="defs1">
    <rect
       id="b"
       width="643.6"
       height="736"
       rx="0"
       ry="0" />
    <style
       id="style1">
      .database-element {
        transition: transform 0.3s ease;
      }
      .database-element:hover {
        transform: scale(1.1);
      }
      .connection-line {
        stroke-dasharray: 2000;
        stroke-dashoffset: 2000;
        animation: draw 2s ease-in-out forwards;
      }
      @keyframes draw {
        to {
          stroke-dashoffset: 0;
        }
      }
      .character-eye {
        animation: blinkEyes 4s ease-in-out infinite;
      }
      @keyframes blinkEyes {
        0%, 97%, 100% { transform: scaleY(1); }
        98% { transform: scaleY(0.1); }
      }
      .character-arm.left {
        animation: armWaveLeft 3s ease-in-out infinite;
      }
      .character-arm.right {
        animation: armWaveRight 3s ease-in-out infinite;
      }
      @keyframes armWaveLeft {
        0%, 100% { transform: rotate(20deg); }
        50% { transform: rotate(40deg); }
      }
      @keyframes armWaveRight {
        0%, 100% { transform: rotate(-20deg); }
        50% { transform: rotate(-40deg); }
      }
      .pulsing-element {
        animation: pulse 2s ease-in-out infinite;
      }
      @keyframes pulse {
        0%, 100% { transform: scale(1); }
        50% { transform: scale(1.05); }
      }
      .gauge-needle {
        animation: rotateNeedle 4s ease-in-out infinite;
      }
      @keyframes rotateNeedle {
        0%, 100% { transform: rotate(-40deg); }
        50% { transform: rotate(20deg); }
      }
      .dashed-line {
        stroke-dasharray: 5, 5;
        animation: flowLine 2s linear infinite;
      }
      @keyframes flowLine {
        to {
          stroke-dashoffset: -20;
        }
      }
      .badge {
        animation: bounce 3s ease-in-out infinite;
      }
      @keyframes bounce {
        0%, 100% { transform: translateY(0); }
        50% { transform: translateY(-10px); }
      }
      .up-down-movement {
        animation: moveUpDown 2s ease-in-out infinite;
      }
      @keyframes moveUpDown {
        0%, 100% { transform: translateY(0); }
        50% { transform: translateY(-5px); }
      }
      .height-adjust {
        transform-origin: bottom;
        animation: adjustHeight 2s ease-in-out infinite;
      }
      @keyframes adjustHeight {
        0%, 100% { transform: translateY(0); }
        50% { transform: translateY(5px); }
      }
      .pointer-path {
        transform-box: fill-box;
        transform-origin: bottom;
        animation: rotatePointer 4s cubic-bezier(0.4, 0, 0.2, 1) infinite;
      }
      @keyframes rotatePointer {
        0% { transform: rotate(0deg); }
        25% { transform: rotate(0deg); }
        50% { transform: rotate(30deg); }
        75% { transform: rotate(30deg); }
        100% { transform: rotate(0deg); }
      }
      .toggle-switch-1 {
        animation: toggleSwitch-1 4s ease-in-out infinite;
      }
      @keyframes toggleSwitch-1 {
        0% { transform: translateX(0); }
        25% { transform: translateX(0); }
        50% { transform: translateX(-15px); }
        75% { transform: translateX(-15px); }
        100% { transform: translateX(0); }
      }
      .toggle-switch-2 {
        animation: toggleSwitch-2 4s ease-in-out infinite;
      }
      @keyframes toggleSwitch-2 {
        0% { transform: translateX(0); }
        25% { transform: translateX(0); }
        50% { transform: translateX(15px); }
        75% { transform: translateX(15px); }
        100% { transform: translateX(0); }
      }
      .face-move {
        animation: moveFace 6s ease-in-out infinite;
        transform-box: fill-box;
        transform-origin: center;
      }
      @keyframes moveFace {
        0%, 100% { transform: translate(0, 0) rotate(0deg); }
        25% { transform: translate(-10px, -3px) rotate(-5deg); }
        50% { transform: translate(0, 0) rotate(0deg); }
        75% { transform: translate(10px, -5px) rotate(5deg); }
      }
      .circle-draw {
        stroke-dasharray: 300;
        stroke-dashoffset: 0;
        animation: drawCircle 2s ease-out forwards, floatCircle 4s ease-in-out infinite;
        transform-box: fill-box;
        transform-origin: center;
      }
      @keyframes drawCircle {
        0% { stroke-dashoffset: 300; }
        100% { stroke-dashoffset: 0; }
      }
      @keyframes floatCircle {
        0%, 100% { transform: translateY(0); }
        50% { transform: translateY(35px); }
      }
    </style>
    <clipPath
       clipPathUnits="userSpaceOnUse"
       id="clipPath1">
      <use
         xlink:href="#b"
         width="643.59998"
         height="736"
         transform="translate(4.8,50.8)"
         id="use1" />
    </clipPath>
    <clipPath
       clipPathUnits="userSpaceOnUse"
       id="clipPath2">
      <use
         xlink:href="#b"
         width="643.59998"
         height="736"
         transform="translate(4.8,50.8)"
         id="use2" />
    </clipPath>
    <clipPath
       clipPathUnits="userSpaceOnUse"
       id="clipPath3">
      <use
         xlink:href="#b"
         width="643.59998"
         height="736"
         transform="translate(4.8,50.8)"
         id="use3" />
    </clipPath>
    <clipPath
       clipPathUnits="userSpaceOnUse"
       id="clipPath4">
      <use
         xlink:href="#b"
         width="643.59998"
         height="736"
         transform="translate(4.8,50.8)"
         id="use4" />
    </clipPath>
    <clipPath
       clipPathUnits="userSpaceOnUse"
       id="clipPath5">
      <use
         xlink:href="#b"
         width="643.59998"
         height="736"
         transform="translate(4.8,50.8)"
         id="use5" />
    </clipPath>
    <clipPath
       clipPathUnits="userSpaceOnUse"
       id="clipPath6">
      <use
         xlink:href="#b"
         width="643.59998"
         height="736"
         transform="translate(4.8,50.8)"
         id="use6" />
    </clipPath>
    <clipPath
       clipPathUnits="userSpaceOnUse"
       id="clipPath7">
      <use
         xlink:href="#b"
         width="643.59998"
         height="736"
         transform="translate(4.8,50.8)"
         id="use7" />
    </clipPath>
    <clipPath
       clipPathUnits="userSpaceOnUse"
       id="clipPath8">
      <use
         xlink:href="#b"
         width="643.59998"
         height="736"
         transform="translate(4.8,50.8)"
         id="use8" />
    </clipPath>
    <clipPath
       clipPathUnits="userSpaceOnUse"
       id="clipPath9">
      <use
         xlink:href="#b"
         width="643.59998"
         height="736"
         transform="translate(4.8,50.8)"
         id="use9" />
    </clipPath>
    <clipPath
       clipPathUnits="userSpaceOnUse"
       id="clipPath10">
      <use
         xlink:href="#b"
         width="643.59998"
         height="736"
         transform="translate(4.8,50.8)"
         id="use10" />
    </clipPath>
    <clipPath
       clipPathUnits="userSpaceOnUse"
       id="clipPath11">
      <use
         xlink:href="#b"
         width="643.59998"
         height="736"
         transform="translate(4.8,50.8)"
         id="use11" />
    </clipPath>
    <clipPath
       clipPathUnits="userSpaceOnUse"
       id="clipPath12">
      <use
         xlink:href="#b"
         width="643.59998"
         height="736"
         transform="translate(4.8,50.8)"
         id="use12" />
    </clipPath>
    <clipPath
       clipPathUnits="userSpaceOnUse"
       id="clipPath13">
      <use
         xlink:href="#b"
         width="643.59998"
         height="736"
         transform="translate(4.8,50.8)"
         id="use13" />
    </clipPath>
    <clipPath
       clipPathUnits="userSpaceOnUse"
       id="clipPath14">
      <use
         xlink:href="#b"
         width="643.59998"
         height="736"
         transform="translate(4.8,50.8)"
         id="use14" />
    </clipPath>
    <clipPath
       clipPathUnits="userSpaceOnUse"
       id="clipPath15">
      <use
         xlink:href="#b"
         width="643.59998"
         height="736"
         transform="translate(4.8,50.8)"
         id="use15" />
    </clipPath>
    <clipPath
       clipPathUnits="userSpaceOnUse"
       id="clipPath16">
      <use
         xlink:href="#b"
         width="643.59998"
         height="736"
         transform="translate(4.8,50.8)"
         id="use16" />
    </clipPath>
    <clipPath
       clipPathUnits="userSpaceOnUse"
       id="clipPath17">
      <use
         xlink:href="#b"
         width="643.59998"
         height="736"
         transform="translate(4.8,50.8)"
         id="use17" />
    </clipPath>
    <clipPath
       clipPathUnits="userSpaceOnUse"
       id="clipPath18">
      <use
         xlink:href="#b"
         width="643.59998"
         height="736"
         transform="translate(4.8,50.8)"
         id="use18" />
    </clipPath>
    <clipPath
       clipPathUnits="userSpaceOnUse"
       id="clipPath19">
      <use
         xlink:href="#b"
         width="643.59998"
         height="736"
         transform="translate(4.8,50.8)"
         id="use19" />
    </clipPath>
    <clipPath
       clipPathUnits="userSpaceOnUse"
       id="clipPath20">
      <use
         xlink:href="#b"
         width="643.59998"
         height="736"
         transform="translate(4.8,50.8)"
         id="use20" />
    </clipPath>
    <clipPath
       clipPathUnits="userSpaceOnUse"
       id="clipPath21">
      <use
         xlink:href="#b"
         width="643.59998"
         height="736"
         transform="translate(4.8,50.8)"
         id="use21" />
    </clipPath>
    <clipPath
       clipPathUnits="userSpaceOnUse"
       id="clipPath22">
      <use
         xlink:href="#b"
         width="643.59998"
         height="736"
         transform="translate(4.8,50.8)"
         id="use22" />
    </clipPath>
    <clipPath
       clipPathUnits="userSpaceOnUse"
       id="clipPath23">
      <use
         xlink:href="#b"
         width="643.59998"
         height="736"
         transform="translate(4.8,50.8)"
         id="use23" />
    </clipPath>
    <clipPath
       clipPathUnits="userSpaceOnUse"
       id="clipPath24">
      <use
         xlink:href="#b"
         width="643.59998"
         height="736"
         transform="translate(4.8,50.8)"
         id="use24" />
    </clipPath>
    <clipPath
       clipPathUnits="userSpaceOnUse"
       id="clipPath25">
      <use
         xlink:href="#b"
         width="643.59998"
         height="736"
         transform="translate(4.8,50.8)"
         id="use25" />
    </clipPath>
    <clipPath
       clipPathUnits="userSpaceOnUse"
       id="clipPath26">
      <use
         xlink:href="#b"
         width="643.59998"
         height="736"
         transform="translate(4.8,50.8)"
         id="use26" />
    </clipPath>
    <clipPath
       clipPathUnits="userSpaceOnUse"
       id="clipPath27">
      <use
         xlink:href="#b"
         width="643.59998"
         height="736"
         transform="translate(4.8,50.8)"
         id="use27" />
    </clipPath>
    <clipPath
       clipPathUnits="userSpaceOnUse"
       id="clipPath28">
      <use
         xlink:href="#b"
         width="643.59998"
         height="736"
         transform="translate(4.8,50.8)"
         id="use28" />
    </clipPath>
    <clipPath
       clipPathUnits="userSpaceOnUse"
       id="clipPath29">
      <use
         xlink:href="#b"
         width="643.59998"
         height="736"
         transform="translate(4.8,50.8)"
         id="use29" />
    </clipPath>
    <clipPath
       clipPathUnits="userSpaceOnUse"
       id="clipPath30">
      <use
         xlink:href="#b"
         width="643.59998"
         height="736"
         transform="translate(4.8,50.8)"
         id="use30" />
    </clipPath>
    <clipPath
       clipPathUnits="userSpaceOnUse"
       id="clipPath31">
      <use
         xlink:href="#b"
         width="643.59998"
         height="736"
         transform="translate(4.8,50.8)"
         id="use31" />
    </clipPath>
    <clipPath
       clipPathUnits="userSpaceOnUse"
       id="clipPath32">
      <use
         xlink:href="#b"
         width="643.59998"
         height="736"
         transform="translate(4.8,50.8)"
         id="use32" />
    </clipPath>
    <clipPath
       clipPathUnits="userSpaceOnUse"
       id="clipPath33">
      <use
         xlink:href="#b"
         width="643.59998"
         height="736"
         transform="translate(4.8,50.8)"
         id="use33" />
    </clipPath>
    <clipPath
       clipPathUnits="userSpaceOnUse"
       id="clipPath34">
      <use
         xlink:href="#b"
         width="643.59998"
         height="736"
         transform="translate(4.8,50.8)"
         id="use34" />
    </clipPath>
    <clipPath
       clipPathUnits="userSpaceOnUse"
       id="clipPath35">
      <use
         xlink:href="#b"
         width="643.59998"
         height="736"
         transform="translate(4.8,50.8)"
         id="use35" />
    </clipPath>
    <clipPath
       clipPathUnits="userSpaceOnUse"
       id="clipPath36">
      <use
         xlink:href="#b"
         width="643.59998"
         height="736"
         transform="translate(4.8,50.8)"
         id="use36" />
    </clipPath>
    <clipPath
       clipPathUnits="userSpaceOnUse"
       id="clipPath37">
      <use
         xlink:href="#b"
         width="643.59998"
         height="736"
         transform="translate(4.8,50.8)"
         id="use37" />
    </clipPath>
    <clipPath
       clipPathUnits="userSpaceOnUse"
       id="clipPath38">
      <use
         xlink:href="#b"
         width="643.59998"
         height="736"
         transform="translate(4.8,50.8)"
         id="use38" />
    </clipPath>
    <clipPath
       clipPathUnits="userSpaceOnUse"
       id="clipPath39">
      <use
         xlink:href="#b"
         width="643.59998"
         height="736"
         transform="translate(4.8,50.8)"
         id="use39" />
    </clipPath>
    <clipPath
       clipPathUnits="userSpaceOnUse"
       id="clipPath40">
      <use
         xlink:href="#b"
         width="643.59998"
         height="736"
         transform="translate(4.8,50.8)"
         id="use40" />
    </clipPath>
    <clipPath
       clipPathUnits="userSpaceOnUse"
       id="clipPath41">
      <use
         xlink:href="#b"
         width="643.59998"
         height="736"
         transform="translate(4.8,50.8)"
         id="use41" />
    </clipPath>
    <clipPath
       clipPathUnits="userSpaceOnUse"
       id="clipPath42">
      <use
         xlink:href="#b"
         width="643.59998"
         height="736"
         transform="translate(4.8,50.8)"
         id="use42" />
    </clipPath>
    <clipPath
       clipPathUnits="userSpaceOnUse"
       id="clipPath43">
      <use
         xlink:href="#b"
         width="643.59998"
         height="736"
         transform="translate(4.8,50.8)"
         id="use43" />
    </clipPath>
    <clipPath
       clipPathUnits="userSpaceOnUse"
       id="clipPath44">
      <use
         xlink:href="#b"
         width="643.59998"
         height="736"
         transform="translate(4.8,50.8)"
         id="use44" />
    </clipPath>
    <clipPath
       clipPathUnits="userSpaceOnUse"
       id="clipPath45">
      <use
         xlink:href="#b"
         width="643.59998"
         height="736"
         transform="translate(4.8,50.8)"
         id="use45" />
    </clipPath>
    <clipPath
       clipPathUnits="userSpaceOnUse"
       id="clipPath46">
      <use
         xlink:href="#b"
         width="643.59998"
         height="736"
         transform="translate(4.8,50.8)"
         id="use46" />
    </clipPath>
    <clipPath
       clipPathUnits="userSpaceOnUse"
       id="clipPath47">
      <use
         xlink:href="#b"
         width="643.59998"
         height="736"
         transform="translate(4.8,50.8)"
         id="use47" />
    </clipPath>
    <clipPath
       clipPathUnits="userSpaceOnUse"
       id="clipPath48">
      <use
         xlink:href="#b"
         width="643.59998"
         height="736"
         transform="translate(4.8,50.8)"
         id="use48" />
    </clipPath>
    <clipPath
       clipPathUnits="userSpaceOnUse"
       id="clipPath49">
      <use
         xlink:href="#b"
         width="643.59998"
         height="736"
         transform="translate(4.8,50.8)"
         id="use49" />
    </clipPath>
    <clipPath
       clipPathUnits="userSpaceOnUse"
       id="clipPath50">
      <use
         xlink:href="#b"
         width="643.59998"
         height="736"
         transform="translate(4.8,50.8)"
         id="use50" />
    </clipPath>
    <clipPath
       clipPathUnits="userSpaceOnUse"
       id="clipPath51">
      <use
         xlink:href="#b"
         width="643.59998"
         height="736"
         transform="translate(4.8,50.8)"
         id="use51" />
    </clipPath>
    <clipPath
       clipPathUnits="userSpaceOnUse"
       id="clipPath52">
      <use
         xlink:href="#b"
         width="643.59998"
         height="736"
         transform="translate(4.8,50.8)"
         id="use52" />
    </clipPath>
    <clipPath
       clipPathUnits="userSpaceOnUse"
       id="clipPath53">
      <use
         xlink:href="#b"
         width="643.59998"
         height="736"
         transform="translate(4.8,50.8)"
         id="use53" />
    </clipPath>
    <clipPath
       clipPathUnits="userSpaceOnUse"
       id="clipPath54">
      <use
         xlink:href="#b"
         width="643.59998"
         height="736"
         transform="translate(4.8,50.8)"
         id="use55" />
    </clipPath>
  </defs>
  <path
     class="connection-line"
     fill="none"
     stroke="#ffd6d6"
     stroke-linecap="round"
     stroke-width="2"
     d="M 342.4,51.9 H 27.4 C 15.6,51.9 6,61.5 6,73.4 v 258.9 c 0,11.9 9.6,21.5 21.5,21.5 h 315 c 11.9,0 21.5,-9.6 21.5,-21.5 V 73.4 C 363.9,61.5 354.3,51.9 342.4,51.9 Z"
     id="path2"
     clip-path="url(#clipPath54)" />
  <path
     fill="#ffffff"
     d="m 175.3,228.3 h -32.1 c -7.6,0 -13.7,6.1 -13.7,13.7 v 82.9 c 0,7.6 6.1,13.7 13.7,13.7 h 32.1 c 7.6,0 13.7,-6.1 13.7,-13.7 V 242 c 0,-7.5 -6.1,-13.7 -13.7,-13.7 z"
     opacity="0.05"
     id="path3"
     clip-path="url(#clipPath53)" />
  <path
     class="database-element"
     fill="none"
     stroke="#98e0ea"
     stroke-linecap="round"
     stroke-width="2"
     d="m 149.4,315.7 h 19.9 c 2.8,0 5,-2.3 5,-5 0,-2.7 -2.3,-5 -5,-5 h -19.9 c -2.8,0 -5,2.3 -5,5 0,2.7 2.2,5 5,5 z"
     id="path4"
     clip-path="url(#clipPath52)" />
  <path
     class="toggle-switch-1"
     fill="#98e0ea"
     d="m 163.3,315.7 h 5.9 c 2.8,0 5,-2.3 5,-5 0,-2.7 -2.3,-5 -5,-5 h -5.9 c -2.8,0 -5,2.3 -5,5 0,2.7 2.2,5 5,5 z"
     id="path5"
     clip-path="url(#clipPath51)" />
  <path
     class="database-element"
     fill="none"
     stroke="#98e0ea"
     stroke-linecap="round"
     stroke-width="2"
     d="m 169.2,278.4 h -19.9 c -2.8,0 -5,2.3 -5,5 0,2.7 2.3,5 5,5 h 19.9 c 2.8,0 5,-2.3 5,-5 0,-2.7 -2.2,-5 -5,-5 z"
     id="path6"
     clip-path="url(#clipPath50)" />
  <path
     class="toggle-switch-2"
     fill="#98e0ea"
     d="m 155.3,278.4 h -5.9 c -2.8,0 -5,2.3 -5,5 0,2.7 2.3,5 5,5 h 5.9 c 2.8,0 5,-2.3 5,-5 0,-2.7 -2.2,-5 -5,-5 z"
     id="path7"
     clip-path="url(#clipPath49)" />
  <path
     class="database-element"
     fill="none"
     stroke="#98e0ea"
     stroke-linecap="round"
     stroke-width="2"
     d="m 169.2,251.2 h -19.9 c -2.8,0 -5,2.3 -5,5 0,2.8 2.3,5 5,5 h 19.9 c 2.8,0 5,-2.3 5,-5 0.1,-2.7 -2.2,-5 -5,-5 z"
     id="path8"
     clip-path="url(#clipPath48)" />
  <path
     class="toggle-switch-2"
     fill="#98e0ea"
     d="m 155.3,251.2 h -5.9 c -2.8,0 -5,2.3 -5,5 0,2.8 2.3,5 5,5 h 5.9 c 2.8,0 5,-2.3 5,-5 0.1,-2.7 -2.2,-5 -5,-5 z"
     id="path9"
     clip-path="url(#clipPath47)" />
  <path
     fill="#ffffff"
     d="m 125.4,112.3 h -91 c -7.6,0 -13.7,6.1 -13.7,13.7 v 82.9 c 0,7.6 6.1,13.7 13.7,13.7 h 91 c 7.6,0 13.7,-6.1 13.7,-13.7 V 126 c 0,-7.6 -6.1,-13.7 -13.7,-13.7 z"
     opacity="0.05"
     id="path10"
     clip-path="url(#clipPath46)" />
  <path
     class="database-element floating-element"
     fill="#98e0ea"
     d="M 68.7,143 H 51.8 v 48.9 h 16.9 z"
     id="path11"
     clip-path="url(#clipPath45)" />
  <path
     fill="#091139"
     d="m 63.3,154.1 h -6.2 v 26.6 h 6.2 z"
     id="path12"
     clip-path="url(#clipPath44)" />
  <path
     class="up-down-movement"
     fill="#ffd6d6"
     d="M 73.7,156.2 H 46.8 v 8.1 h 26.9 z"
     id="path13"
     clip-path="url(#clipPath43)" />
  <path
     class="database-element floating-element"
     fill="#98e0ea"
     d="M 108,143 H 91.1 v 48.9 H 108 Z"
     id="path14"
     clip-path="url(#clipPath42)" />
  <path
     fill="#091139"
     d="m 102.6,154.1 h -6.2 v 26.6 h 6.2 z"
     id="path15"
     clip-path="url(#clipPath41)" />
  <path
     class="up-down-movement"
     fill="#ffd6d6"
     d="M 113,170 H 86.1 v 8.1 H 113 Z"
     id="path16"
     clip-path="url(#clipPath40)" />
  <path
     fill="#ffffff"
     d="M 335.2,112.8 H 158.7 c -7.6,0 -13.7,6.1 -13.7,13.7 v 82.9 c 0,7.6 6.1,13.7 13.7,13.7 h 176.5 c 7.6,0 13.7,-6.1 13.7,-13.7 v -82.9 c 0,-7.6 -6.1,-13.7 -13.7,-13.7 z"
     opacity="0.05"
     id="path17"
     clip-path="url(#clipPath39)" />
  <path
     fill="none"
     stroke="#ffd6d6"
     stroke-linecap="round"
     stroke-width="8"
     d="m 248.5,150.6 c 15.1,8.8 25.3,25.1 25.3,43.8 m -101.3,0 c 0,-28 22.7,-50.6 50.6,-50.6 9.2,0 17.9,2.5 25.4,6.8"
     id="path18"
     clip-path="url(#clipPath38)" />
  <path
     class="database-element floating-element"
     fill="#ffd6d6"
     d="m 301.5,148.3 c 2.6,0 4.6,-2.1 4.6,-4.6 0,-2.5 -2.1,-4.6 -4.6,-4.6 -2.5,0 -4.6,2.1 -4.6,4.6 0,2.5 2.1,4.6 4.6,4.6 z m 15.2,0 c 2.5,0 4.6,-2.1 4.6,-4.6 0,-2.5 -2.1,-4.6 -4.6,-4.6 -2.6,0 -4.6,2.1 -4.6,4.6 0,2.5 2.1,4.6 4.6,4.6 z"
     id="path19"
     clip-path="url(#clipPath37)" />
  <path
     class="database-element floating-element"
     fill="#98e0ea"
     d="m 301.5,163.8 c 2.6,0 4.6,-2.1 4.6,-4.6 0,-2.5 -2.1,-4.6 -4.6,-4.6 -2.5,0 -4.6,2.1 -4.6,4.6 0,2.5 2.1,4.6 4.6,4.6 z"
     id="path20"
     clip-path="url(#clipPath36)" />
  <path
     fill="none"
     stroke="#98e0ea"
     stroke-linecap="round"
     stroke-width="2"
     d="m 105.2,250.9 v 57.4 M 39,250.9 v 64.8 m 44.1,-64.8 v 54.8 m -22,-54.8 v 63.8"
     id="path21"
     clip-path="url(#clipPath35)" />
  <path
     class="database-element floating-element"
     fill="#98e0ea"
     d="m 316.7,163.8 c 2.5,0 4.6,-2.1 4.6,-4.6 0,-2.5 -2.1,-4.6 -4.6,-4.6 -2.6,0 -4.6,2.1 -4.6,4.6 0,2.5 2.1,4.6 4.6,4.6 z m -15.2,15.4 c 2.6,0 4.6,-2.1 4.6,-4.6 0,-2.5 -2.1,-4.6 -4.6,-4.6 -2.5,0 -4.6,2.1 -4.6,4.6 0,2.5 2.1,4.6 4.6,4.6 z m 15.2,0 c 2.5,0 4.6,-2.1 4.6,-4.6 0,-2.5 -2.1,-4.6 -4.6,-4.6 -2.6,0 -4.6,2.1 -4.6,4.6 0,2.5 2.1,4.6 4.6,4.6 z m -15.2,15.5 c 2.6,0 4.6,-2.1 4.6,-4.6 0,-2.5 -2.1,-4.6 -4.6,-4.6 -2.5,0 -4.6,2.1 -4.6,4.6 0,2.5 2.1,4.6 4.6,4.6 z m 15.2,0 c 2.5,0 4.6,-2.1 4.6,-4.6 0,-2.5 -2.1,-4.6 -4.6,-4.6 -2.6,0 -4.6,2.1 -4.6,4.6 0,2.5 2.1,4.6 4.6,4.6 z"
     id="path22"
     clip-path="url(#clipPath34)" />
  <path
     fill="#ffffff"
     d="M 110.1,228.3 H 34.4 c -7.6,0 -13.7,6.1 -13.7,13.7 v 82.9 c 0,7.6 6.1,13.7 13.7,13.7 h 75.7 c 7.6,0 13.7,-6.1 13.7,-13.7 V 242 c 0,-7.5 -6.2,-13.7 -13.7,-13.7 z"
     opacity="0.05"
     id="path23"
     clip-path="url(#clipPath33)" />
  <g
     id="g7"
     class="height-adjust">
    <path
       fill="none"
       stroke="#ffd6d6"
       stroke-linecap="round"
       stroke-miterlimit="10"
       stroke-width="2"
       d="M 39,276.7 V 316"
       id="path24"
       clip-path="url(#clipPath32)" />
    <path
       fill="#ffd6d6"
       stroke="#ffd6d6"
       stroke-linecap="round"
       stroke-miterlimit="10"
       stroke-width="2"
       d="m 39.1,278.5 c 1.2,0 2.2,-1 2.2,-2.2 0,-1.2 -1,-2.2 -2.2,-2.2 -1.2,0 -2.2,1 -2.2,2.2 0,1.2 1,2.2 2.2,2.2 z"
       id="path25"
       clip-path="url(#clipPath31)" />
  </g>
  <g
     id="g6"
     class="height-adjust">
    <path
       fill="none"
       stroke="#ffd6d6"
       stroke-linecap="round"
       stroke-miterlimit="10"
       stroke-width="2"
       d="M 61.1,294.6 V 316"
       id="path26"
       clip-path="url(#clipPath30)" />
    <path
       fill="#ffd6d6"
       stroke="#ffd6d6"
       stroke-linecap="round"
       stroke-miterlimit="10"
       stroke-width="2"
       d="m 61.2,296.5 c 1.2,0 2.2,-1 2.2,-2.2 0,-1.2 -1,-2.2 -2.2,-2.2 -1.2,0 -2.2,1 -2.2,2.2 0,1.2 0.9,2.2 2.2,2.2 z"
       id="path27"
       clip-path="url(#clipPath29)" />
  </g>
  <g
     id="g5"
     class="height-adjust">
    <path
       fill="none"
       stroke="#ffd6d6"
       stroke-linecap="round"
       stroke-miterlimit="10"
       stroke-width="2"
       d="M 83.1,272.6 V 316"
       id="path28"
       clip-path="url(#clipPath28)" />
  </g>
  <path
     fill="#ffd6d6"
     stroke="#ffd6d6"
     stroke-linecap="round"
     stroke-miterlimit="10"
     stroke-width="2"
     d="m 83.2,274.5 c 1.2,0 2.2,-1 2.2,-2.2 0,-1.2 -1,-2.2 -2.2,-2.2 -1.2,0 -2.2,1 -2.2,2.2 0,1.2 1,2.2 2.2,2.2 z"
     id="path29"
     clip-path="url(#clipPath27)" />
  <g
     id="g4"
     class="height-adjust">
    <path
       fill="none"
       stroke="#ffd6d6"
       stroke-linecap="round"
       stroke-miterlimit="10"
       stroke-width="2"
       d="M 105.2,284.6 V 316"
       id="path30"
       clip-path="url(#clipPath26)" />
    <path
       fill="#ffd6d6"
       stroke="#ffd6d6"
       stroke-linecap="round"
       stroke-miterlimit="10"
       stroke-width="2"
       d="m 105.3,286.5 c 1.2,0 2.2,-1 2.2,-2.2 0,-1.2 -1,-2.2 -2.2,-2.2 -1.2,0 -2.2,1 -2.2,2.2 0,1.2 1,2.2 2.2,2.2 z"
       id="path31"
       clip-path="url(#clipPath25)" />
  </g>
  <path
     fill="#ffffff"
     d="M 335.7,228.3 H 208.5 c -7.6,0 -13.7,6.1 -13.7,13.7 v 82.9 c 0,7.6 6.1,13.7 13.7,13.7 h 127.2 c 7.6,0 13.7,-6.1 13.7,-13.7 V 242 c 0,-7.5 -6.1,-13.7 -13.7,-13.7 z"
     opacity="0.05"
     id="path32"
     clip-path="url(#clipPath24)" />
  <path
     class="database-element"
     fill="none"
     stroke="#98e0ea"
     stroke-linecap="round"
     stroke-width="2"
     d="m 311.9,250.3 h -81.2 c -2.8,0 -5.2,2.3 -5.2,5.2 0,2.8 2.3,5.2 5.2,5.2 h 81.2 c 2.8,0 5.2,-2.3 5.2,-5.2 0,-2.9 -2.3,-5.2 -5.2,-5.2 z"
     id="path33"
     clip-path="url(#clipPath23)" />
  <path
     class="database-element"
     fill="#98e0ea"
     d="M 266.9,250.3 H 231 c -2.8,0 -5.2,2.3 -5.2,5.2 0,2.8 2.3,5.2 5.2,5.2 h 35.9 c 2.8,0 5.2,-2.3 5.2,-5.2 -0.1,-2.9 -2.4,-5.2 -5.2,-5.2 z"
     id="path34"
     clip-path="url(#clipPath22)" />
  <path
     fill="none"
     stroke="#ffd6d6"
     stroke-linecap="round"
     stroke-width="2"
     d="m 243.9,316.7 c 10.4,0 18.8,-8.4 18.8,-18.8 0,-10.4 -8.4,-18.8 -18.8,-18.8 -10.4,0 -18.8,8.4 -18.8,18.8 0,10.3 8.4,18.8 18.8,18.8 z"
     id="path35"
     clip-path="url(#clipPath21)" />
  <path
     class="database-element"
     fill="#ffd6d6"
     d="m 243.9,308.3 c 5.8,0 10.5,-4.7 10.5,-10.5 0,-5.8 -4.7,-10.5 -10.5,-10.5 -5.8,0 -10.5,4.7 -10.5,10.5 0,5.8 4.7,10.5 10.5,10.5 z"
     id="path36"
     clip-path="url(#clipPath20)" />
  <path
     fill="none"
     stroke="#ffd6d6"
     stroke-linecap="round"
     stroke-width="2"
     d="m 299.2,316.7 c 10.4,0 18.8,-8.4 18.8,-18.8 0,-10.4 -8.4,-18.8 -18.8,-18.8 -10.4,0 -18.8,8.4 -18.8,18.8 0,10.3 8.4,18.8 18.8,18.8 z"
     id="path37"
     clip-path="url(#clipPath19)" />
  <path
     class="database-element"
     fill="none"
     stroke="#ffd6d6"
     stroke-linecap="round"
     stroke-miterlimit="10"
     stroke-width="2"
     d="m 299.2,308.3 c 5.8,0 10.5,-4.7 10.5,-10.5 0,-5.8 -4.7,-10.5 -10.5,-10.5 -5.8,0 -10.5,4.7 -10.5,10.5 0,5.8 4.7,10.5 10.5,10.5 z"
     id="path38"
     clip-path="url(#clipPath18)" />
  <path
     fill="none"
     stroke="#ffffff"
     stroke-dasharray="2, 4"
     stroke-linecap="round"
     stroke-miterlimit="10"
     d="m 540,240.5 v -41 c 0,-6.6 -5.4,-12 -12,-12 H 364.2"
     id="path39"
     clip-path="url(#clipPath17)" />
  <path
     fill="none"
     stroke="#ffffff"
     stroke-dasharray="2, 4"
     stroke-linecap="round"
     stroke-miterlimit="10"
     d="m 477.4,289.4 31.5,-25.4 31.5,-25.4 31.5,25.4 31.5,25.4"
     id="path40"
     clip-path="url(#clipPath16)" />
  <path
     fill="none"
     stroke="#ffd6d6"
     stroke-linecap="round"
     stroke-width="2"
     d="m 606.3,398.4 v 29.8 c 0,2.7 -1.6,5.5 -4.9,8.1 -3.3,2.6 -8,5 -14,7 -12,4 -28.5,6.5 -46.9,6.5 -18.4,0 -34.9,-2.5 -46.9,-6.5 -6,-2 -10.8,-4.4 -14,-7 -3.3,-2.6 -4.9,-5.3 -4.9,-8.1 V 398"
     id="path41"
     clip-path="url(#clipPath15)" />
  <path
     fill="none"
     stroke="#ffd6d6"
     stroke-linecap="round"
     stroke-width="2"
     d="m 606.3,397.9 c 0,2.7 -1.6,5.5 -4.9,8.1 -3.3,2.6 -8,5 -14,7 -12,4 -28.5,6.5 -46.9,6.5 -18.4,0 -34.9,-2.5 -46.9,-6.5 -6,-2 -10.8,-4.4 -14,-7 -3.3,-2.6 -4.9,-5.3 -4.9,-8.1 0,-2.8 1.6,-5.5 4.9,-8.1 3.3,-2.6 8,-5 14,-7 12,-4 28.5,-6.5 46.9,-6.5 18.4,0 34.9,2.5 46.9,6.5 6,2 10.8,4.4 14,7 3.3,2.6 4.9,5.4 4.9,8.1 z"
     id="path42"
     clip-path="url(#clipPath14)" />
  <path
     fill="none"
     stroke="#ffd6d6"
     stroke-linecap="round"
     stroke-width="2"
     d="m 606.3,363.9 c 0,2.7 -1.6,5.5 -4.9,8.1 -3.3,2.6 -8,5 -14,7 -12,4 -28.5,6.5 -46.9,6.5 -18.4,0 -34.9,-2.5 -46.9,-6.5 -6,-2 -10.8,-4.4 -14,-7 -3.3,-2.6 -4.9,-5.3 -4.9,-8.1 0,-2.7 1.6,-5.5 4.9,-8.1 3.3,-2.6 8,-5 14,-7 12,-4 28.5,-6.5 46.9,-6.5 18.4,0 34.9,2.5 46.9,6.5 6,2 10.8,4.4 14,7 3.3,2.6 4.9,5.3 4.9,8.1 z"
     id="path43"
     clip-path="url(#clipPath13)" />
  <path
     fill="none"
     stroke="#ffd6d6"
     stroke-linecap="round"
     stroke-width="2"
     d="m 606.3,329.8 c 0,2.7 -1.6,5.5 -4.9,8.1 -3.3,2.6 -8,5 -14,7 -12,4 -28.5,6.5 -46.9,6.5 -18.4,0 -34.9,-2.5 -46.9,-6.5 -6,-2 -10.8,-4.4 -14,-7 -3.3,-2.6 -4.9,-5.3 -4.9,-8.1 0,-2.7 1.6,-5.5 4.9,-8.1 3.3,-2.6 8,-5 14,-7 12,-4 28.5,-6.5 46.9,-6.5 18.4,0 34.9,2.5 46.9,6.5 6,2 10.8,4.4 14,7 3.3,2.7 4.9,5.4 4.9,8.1 z"
     id="path44"
     clip-path="url(#clipPath12)" />
  <path
     fill="none"
     stroke="#ffffff"
     stroke-dasharray="2, 4"
     stroke-linecap="round"
     stroke-miterlimit="10"
     d="m 606.3,295.8 c 0,2.7 -1.6,5.5 -4.9,8.1 -3.3,2.6 -8,5 -14,7 -12,4 -28.5,6.5 -46.9,6.5 -18.4,0 -34.9,-2.5 -46.9,-6.5 -6,-2 -10.8,-4.4 -14,-7 -3.3,-2.6 -4.9,-5.3 -4.9,-8.1 0,-2.7 1.6,-5.5 4.9,-8.1 3.3,-2.6 8,-5 14,-7 12,-4 28.5,-6.5 46.9,-6.5 18.4,0 34.9,2.5 46.9,6.5 6,2 10.8,4.4 14,7 3.3,2.6 4.9,5.4 4.9,8.1 z"
     id="path45"
     clip-path="url(#clipPath11)" />
  <path
     class="database-element"
     fill="none"
     stroke="#ffd6d6"
     stroke-linecap="round"
     stroke-width="2"
     d="m 606.9,404.6 c 3.4,0.9 6.6,1.9 9.6,3 9.7,3.4 17.5,7.4 22.8,11.8 5.3,4.4 8,9 8,13.6 0,4.6 -2.7,9.2 -8,13.6 -5.3,4.4 -13.1,8.4 -22.8,11.8 -19.4,6.8 -46.3,11 -76.1,11 -29.8,0 -56.7,-4.2 -76.1,-11 -9.7,-3.4 -17.5,-7.4 -22.8,-11.8 -5.3,-4.4 -8,-9 -8,-13.6 0,-4.6 2.7,-9.2 8,-13.6 5.3,-4.4 13.1,-8.4 22.8,-11.8 3.1,-1.1 6.4,-2.1 9.9,-3.1 m 87.3,-10.3 c 0,0.9 -0.5,1.8 -1.6,2.6 -1,0.8 -2.6,1.6 -4.5,2.2 -3.8,1.3 -9.1,2.1 -14.9,2.1 -5.8,0 -11.1,-0.8 -14.9,-2.1 -1.9,-0.6 -3.4,-1.4 -4.5,-2.2 -1.1,-0.8 -1.6,-1.7 -1.6,-2.6 0,-0.9 0.5,-1.8 1.6,-2.6 1,-0.8 2.6,-1.6 4.5,-2.2 3.8,-1.3 9.1,-2.1 14.9,-2.1 5.8,0 11.1,0.8 14.9,2.1 1.9,0.6 3.4,1.4 4.5,2.2 1.1,0.8 1.6,1.7 1.6,2.6 z"
     id="path46"
     clip-path="url(#clipPath10)" />
  <path
     class="database-element"
     fill="#ffd6d6"
     d="M 647.3,439 540.5,573.9 433.8,439 c 0,0 9.2,20.9 78.2,29.1 68.9,8.1 128.5,-12.8 135.3,-29.1 z"
     id="path47"
     clip-path="url(#clipPath9)" />
  <path
     fill="none"
     stroke="#ffffff"
     stroke-dasharray="2, 4"
     stroke-linecap="round"
     stroke-miterlimit="10"
     d="m 186,394.7 v -41 m -62.6,89.9 31.5,-25.4 31.5,-25.4 31.5,25.4 31.5,25.4"
     id="path48"
     clip-path="url(#clipPath8)" />
  <path
     fill="none"
     stroke="#ffd6d6"
     stroke-linecap="round"
     stroke-width="2"
     d="m 252.3,484.5 v 29.8 c 0,2.7 -1.6,5.5 -4.9,8.1 -3.3,2.6 -8,5 -14,7 -11.9,4 -28.5,6.5 -46.9,6.5 -18.4,0 -34.9,-2.5 -46.9,-6.5 -6,-2 -10.8,-4.4 -14,-7 -3.3,-2.6 -4.9,-5.3 -4.9,-8.1 v -30.2"
     id="path49"
     clip-path="url(#clipPath7)" />
  <path
     fill="none"
     stroke="#ffd6d6"
     stroke-linecap="round"
     stroke-width="2"
     d="m 252.3,484 c 0,2.7 -1.6,5.5 -4.9,8.1 -3.3,2.6 -8,5 -14,7 -11.9,4 -28.5,6.5 -46.9,6.5 -18.4,0 -34.9,-2.5 -46.9,-6.5 -6,-2 -10.8,-4.4 -14,-7 -3.3,-2.6 -4.9,-5.3 -4.9,-8.1 0,-2.7 1.6,-5.5 4.9,-8.1 3.3,-2.6 8,-5 14,-7 12,-4 28.5,-6.5 46.9,-6.5 18.4,0 34.9,2.5 46.9,6.5 6,2 10.8,4.4 14,7 3.3,2.7 4.9,5.4 4.9,8.1 z"
     id="path50"
     clip-path="url(#clipPath6)" />
  <path
     fill="none"
     stroke="#ffffff"
     stroke-dasharray="2, 4"
     stroke-linecap="round"
     stroke-miterlimit="10"
     d="m 252.3,450 c 0,2.7 -1.6,5.5 -4.9,8.1 -3.3,2.6 -8,5 -14,7 -11.9,4 -28.5,6.5 -46.9,6.5 -18.4,0 -34.9,-2.5 -46.9,-6.5 -6,-2 -10.8,-4.4 -14,-7 -3.3,-2.6 -4.9,-5.3 -4.9,-8.1 0,-2.7 1.6,-5.5 4.9,-8.1 3.3,-2.6 8,-5 14,-7 12,-4 28.5,-6.5 46.9,-6.5 18.4,0 34.9,2.5 46.9,6.5 6,2 10.8,4.4 14,7 3.3,2.6 4.9,5.4 4.9,8.1 z"
     id="path51"
     clip-path="url(#clipPath5)" />
  <path
     class="database-element"
     fill="none"
     stroke="#ffd6d6"
     stroke-linecap="round"
     stroke-width="2"
     d="m 252.9,490.7 c 3.4,0.9 6.6,1.9 9.6,3 9.7,3.4 17.5,7.4 22.8,11.8 5.3,4.4 8,9 8,13.6 0,4.6 -2.7,9.2 -8,13.6 -5.3,4.4 -13.1,8.4 -22.8,11.8 -19.4,6.8 -46.3,11 -76.1,11 -29.8,0 -56.7,-4.2 -76.1,-11 -9.7,-3.4 -17.5,-7.4 -22.8,-11.8 -5.3,-4.4 -8,-9 -8,-13.6 0,-4.6 2.7,-9.2 8,-13.6 5.3,-4.4 13.1,-8.4 22.8,-11.8 3.1,-1.1 6.4,-2.1 9.9,-3.1 m 87.3,-10.3 c 0,0.9 -0.5,1.7 -1.6,2.6 -1,0.8 -2.6,1.6 -4.5,2.2 -3.8,1.3 -9.1,2.1 -14.9,2.1 -5.8,0 -11.1,-0.8 -14.9,-2.1 -1.9,-0.6 -3.4,-1.4 -4.5,-2.2 -1,-0.8 -1.6,-1.7 -1.6,-2.6 0,-0.9 0.5,-1.8 1.6,-2.6 1,-0.8 2.6,-1.6 4.5,-2.2 3.8,-1.3 9.1,-2.1 14.9,-2.1 5.8,0 11.1,0.8 14.9,2.1 1.9,0.6 3.4,1.4 4.5,2.2 1,0.9 1.6,1.7 1.6,2.6 z"
     id="path52"
     clip-path="url(#clipPath4)" />
  <path
     class="database-element"
     fill="#ffd6d6"
     d="M 293.2,525.1 186.5,660 79.7,525.1 c 0,0 9.2,20.9 78.2,29.1 69,8.2 128.5,-12.7 135.3,-29.1 z"
     id="path53"
     clip-path="url(#clipPath3)" />
  <path
     fill="none"
     stroke="#ffd6d6"
     stroke-linecap="round"
     stroke-width="2"
     d="M 540.5,558.5 V 591 c 0,32.8 -26.6,59.4 -59.4,59.4 -32.8,0 -59.4,26.6 -59.4,59.4 v -9.1 25.3 c 0,32.8 -26.6,59.4 -59.4,59.4 H 245.9 c -32.8,0 -59.4,-26.6 -59.4,-59.4 v -70.3"
     id="path54"
     clip-path="url(#clipPath2)" />
  <a
     id="a86"
     transform="translate(0,20)">
    <text
       xml:space="preserve"
       style="font-size:53.3333px;line-height:42.24px;text-align:start;writing-mode:lr-tb;direction:ltr;text-anchor:start;white-space:pre;inline-size:280.715;display:inline;fill:#000000;stroke-width:1.30772"
       x="40.955112"
       y="81.645142"
       id="text86"
       transform="matrix(0.5126171,0,0,0.74053946,16.701317,21.040399)"><tspan
         x="40.955112"
         y="81.645142"
         id="tspan2"><tspan
           style="fill:#00ffff"
           id="tspan1">AssetX</tspan></tspan></text>
  </a>
  <path
     class="database-element floating-element"
     fill="#fcff83"
     d="m 362.14907,153.23488 c 0,0 14.1,-2.602 25,11.097 10.9,13.699 8.404,33.3 -2.296,41.4 -10.699,8.202 -28.299,10.803 -38.8,-0.196 -10.4,-11.1 -14.603,-44.399 16.096,-52.301 z"
     id="path64-7"
     clip-path="url(#clipPath1)" />
  <g
     class="pointer-path"
     id="g57">
    <path
       fill="none"
       stroke="#98e0ea"
       stroke-linecap="round"
       stroke-linejoin="round"
       stroke-width="2"
       d="m238.695 163.997-1.8-4.5-4.5 1.801"
       id="path55" />
    <path
       fill="none"
       stroke="#98e0ea"
       stroke-linecap="round"
       stroke-miterlimit="10"
       stroke-width="2"
       d="m222.1 193.2 14.495-33.002"
       id="path56" />
    <path
       fill="#98e0ea"
       d="M222.1 196.8c1.7 0 3.1-1.4 3.1-3.1s-1.4-3.1-3.1-3.1-3.1 1.4-3.1 3.1 1.4 3.1 3.1 3.1Z"
       id="path57" />
  </g>
  <path
     fill="none"
     stroke="#98e0ea"
     stroke-dasharray="107,107"
     stroke-dashoffset="11.007"
     stroke-linecap="round"
     stroke-width="8"
     d="M172.5 194.4c0-28 22.7-50.6 50.6-50.6 9.2 0 17.9 2.5 25.4 6.8"
     id="path58" />
  <path
     fill="none"
     stroke="#fcff83"
     stroke-linecap="round"
     stroke-miterlimit="10"
     stroke-width="2"
     d="M352.097 190.698S330.3 188.4 329.2 208.9c-1 18.8 23.7 31.9 35.701 28.9"
     id="path59" />
  <path
     fill="none"
     stroke="#fcff83"
     stroke-linecap="round"
     stroke-miterlimit="10"
     stroke-width="2"
     d="M359.195 202.998S334.6 199.3 334.7 219.8c0 18.8 16.601 21.8 28.201 32"
     id="path60" />
  <path
     fill="none"
     stroke="#fcff83"
     stroke-linecap="round"
     stroke-miterlimit="10"
     stroke-width="2"
     d="M345.197 184.698s-15.698.703-21.698 14.103c-5.8 13.1.701 19.799 10.801 25.499M402.5 198.8s-2.502 34.001-22.702-3.699M361.296 206.802s-6.999 7.503 1.704 30.498"
     id="path61" />
  <path
     fill="none"
     stroke="#fcff83"
     stroke-linecap="round"
     stroke-miterlimit="10"
     stroke-width="2"
     d="M402.5 198.8s-2.502 34.001-22.702-3.699"
     id="path62" />
  <path
     fill="none"
     stroke="#fcff83"
     stroke-linecap="round"
     stroke-miterlimit="10"
     stroke-width="2"
     d="M361.296 206.802s-6.999 7.503 1.704 30.498"
     id="path63" />
  <path
     class="toggle-switch"
     fill="none"
     stroke="#fcff83"
     stroke-linecap="round"
     stroke-miterlimit="10"
     stroke-width="2"
     d="M361.296 206.802s-6.999 7.503 1.704 30.498"
     id="path64" />
  <path
     fill="#fff"
     stroke="#17204e"
     stroke-miterlimit="10"
     d="M352.097 190.595c-2.1-4.8-1.401-9.8 1.599-11 3-1.3 7.1 1.6 9.2 6.4s1.401 9.8-1.599 11-7.1-1.6-9.2-6.4ZM370.996 183.994c-1-5.1.8-9.8 3.9-10.4 3.2-.6 6.6 3.1 7.6 8.199s-.8 9.8-3.9 10.4c-3.2.6-6.6-3.1-7.6-8.2Z"
     id="path65" />
  <path
     id="eye1"
     class="character-eye"
     fill="#091139"
     d="M361.996 184.795s-3.3-2.1-5.5 2c-2.1 4.1 3.901 10.6 4.101 10.5s6.6-3.4 1.4-12.5ZM381.496 180.393s-3-2.6-5.7 1.1 2.2 11 2.4 11 7.1-2.3 3.3-12.1Z" />
  <path
     id="path66"
     class="circle-draw"
     fill="none"
     stroke="#ffd6d6"
     stroke-linecap="round"
     stroke-miterlimit="10"
     stroke-width="2"
     d="M252.3 450c0 2.7-1.6 5.5-4.9 8.1s-8 5-14 7c-11.9 4-28.5 6.5-46.9 6.5s-34.9-2.5-46.9-6.5c-6-2-10.8-4.4-14-7-3.3-2.6-4.9-5.3-4.9-8.1 0-2.7 1.6-5.5 4.9-8.1s8-5 14-7c12-4 28.5-6.5 46.9-6.5s34.9 2.5 46.9 6.5c6 2 10.8 4.4 14 7 3.3 2.6 4.9 5.4 4.9 8.1Z" />
  <path
     id="path67"
     class="circle-draw"
     fill="none"
     stroke="#ffd6d6"
     stroke-linecap="round"
     stroke-miterlimit="10"
     stroke-width="2"
     d="M606.3 295.8c0 2.7-1.6 5.5-4.9 8.1s-8 5-14 7c-12 4-28.5 6.5-46.9 6.5s-34.9-2.5-46.9-6.5c-6-2-10.8-4.4-14-7-3.3-2.6-4.9-5.3-4.9-8.1 0-2.7 1.6-5.5 4.9-8.1s8-5 14-7c12-4 28.5-6.5 46.9-6.5s34.9 2.5 46.9 6.5c6 2 10.8 4.4 14 7 3.3 2.6 4.9 5.4 4.9 8.1Z" />
  <path
     fill="none"
     stroke="#fcff83"
     stroke-linecap="round"
     stroke-miterlimit="10"
     stroke-width="2"
     d="M250.439 455.206s-21.798-2.298-22.898 18.202c-1 18.8 23.7 31.9 35.7 28.9"
     id="path68" />
  <path
     fill="none"
     stroke="#fcff83"
     stroke-linecap="round"
     stroke-miterlimit="10"
     stroke-width="2"
     d="M257.537 467.506s-24.596-3.698-24.496 16.802c0 18.8 16.6 21.8 28.2 32"
     id="path69" />
  <path
     fill="none"
     stroke="#fcff83"
     stroke-linecap="round"
     stroke-miterlimit="10"
     stroke-width="2"
     d="M277.289 452.691s31.885 23.616 13.885 54.986"
     id="path71" />
  <path
     fill="none"
     stroke="#fcff83"
     stroke-linecap="round"
     stroke-miterlimit="10"
     stroke-width="2"
     d="M282.314 450.934s9.85 3.315 11.498 16.837-11.543 38.257-11.543 38.257"
     id="path72" />
  <g
     id="g3"
     class="face-move">
    <path
       fill="none"
       stroke="#fcff83"
       stroke-linecap="round"
       stroke-miterlimit="10"
       stroke-width="2"
       d="M241.03 440.41s-14.951 10.896-20.951 24.296c-5.8 13.1 2.462 18.402 12.562 24.102M275.343 504.049s25.065-23.416.508-42.445M259.638 471.31s-7 7.503 1.703 30.498"
       id="path70" />
    <path
       class="database-element floating-element"
       fill="#fcff83"
       d="M261.835 422.003s14.1-2.601 25.001 11.098 8.403 33.3-2.296 41.4c-10.7 8.2-28.3 10.802-38.8-.197-10.401-11.099-14.604-44.399 16.095-52.301Z"
       id="path73" />
    <path
       fill="#fff"
       stroke="#17204e"
       stroke-miterlimit="10"
       d="M250.438 455.104c-2.1-4.8-1.4-9.8 1.6-11 3-1.3 7.1 1.6 9.2 6.399s1.4 9.8-1.6 11-7.1-1.6-9.2-6.4ZM269.657 449c-1.507-5.019-.21-9.898 2.912-10.728 3.135-.93 6.856 2.443 8.363 7.46s.21 9.898-2.912 10.728-6.856-2.443-8.363-7.46Z"
       id="path74" />
    <path
       id="eye2"
       class="character-eye"
       fill="#091139"
       d="M257.974 445.676s-2.481-3.167-4.68.933c-2.1 4.1 3.538 10.637 5.575 11.24 2.036.603 7.602.35-.895-12.173ZM278.096 440.493s-2.08-3.443-4.758.362c-2.578 3.817 2.232 10.986 4.18 11.83 1.95.843 7.506 1.262.578-12.192Z" />
  </g>
  <path
     fill="none"
     stroke="#fcff83"
     stroke-linecap="round"
     stroke-miterlimit="10"
     stroke-width="2"
     d="M478.934 389.791s20.564-1.127 21.664 19.373c1 18.8-14.895 29.694-29.495 32.22"
     id="path75" />
  <path
     fill="none"
     stroke="#fcff83"
     stroke-linecap="round"
     stroke-miterlimit="10"
     stroke-width="2"
     d="M470.014 403.436s24.596-3.698 24.496 16.802c0 18.8-16.6 21.8-28.2 32"
     id="path76" />
  <path
     fill="none"
     stroke="#fcff83"
     stroke-linecap="round"
     stroke-miterlimit="10"
     stroke-width="2"
     d="M448.642 392.252s-40.99 24.706-12.265 51.355"
     id="path78" />
  <path
     fill="none"
     stroke="#fcff83"
     stroke-linecap="round"
     stroke-miterlimit="10"
     stroke-width="2"
     d="M447.238 382.706s-21.899 5.615-25.268 23.303 17.407 35.656 17.407 35.656"
     id="path79" />
  <g
     id="g2"
     class="face-move">
    <path
       fill="none"
       stroke="#fcff83"
       stroke-linecap="round"
       stroke-miterlimit="10"
       stroke-width="1.86727"
       d="m 485.22518,379.81976 c 0,0 10.74785,5.88167 16.26098,18.59367 5.32935,12.4274 -2.26222,17.45717 -11.54266,22.86452 m -39.23693,14.45942 c 0,0 -23.0311,-22.21469 -0.46678,-40.26667 m 14.89831,9.20766 c 0,0 6.43015,7.11777 -1.56573,28.93212"
       id="path77" />
    <g
       id="g1"
       transform="matrix(0.91885476,0,0,0.94865641,35.193096,18.347522)">
      <path
         class="database-element floating-element"
         fill="#fcff83"
         d="m 465.667,357.689 c 0,0 -14.1,-2.601 -25.001,11.098 -10.901,13.699 -8.403,33.299 2.297,41.4 10.699,8.2 28.299,10.802 38.8,-0.197 10.4,-11.099 14.603,-44.399 -16.096,-52.301 z"
         id="path80" />
      <path
         fill="#ffffff"
         stroke="#17204e"
         stroke-miterlimit="10"
         d="m 477.113,391.034 c 2.1,-4.8 1.4,-9.8 -1.6,-11 -2.999,-1.3 -7.1,1.6 -9.2,6.399 -2.1,4.799 -1.4,9.8 1.6,11 3,1.2 7.1,-1.6 9.2,-6.4 z m -18.9,-6.602 c 1,-5.1 -0.799,-9.8 -3.899,-10.4 -3.2,-0.6 -6.6,3.1 -7.6,8.2 -1,5.1 0.799,9.8 3.899,10.4 3.2,0.6 6.6,-3.1 7.6,-8.2 z"
         id="path81" />
      <path
         id="eye3"
         class="character-eye"
         fill="#091139"
         d="m 469.574,381.61 c 0,0 2.483,-3.166 4.684,0.93 2.103,4.093 -3.535,10.65 -5.573,11.248 -2.038,0.598 -7.6,0.338 0.89,-12.177 z m -19.578,-5.926 c 0,0 3.55,-3.806 5.756,0.293 1.867,3.732 -2.954,10.894 -5.496,12.248 -2.543,1.354 -7.872,-0.14 -0.26,-12.541 z" />
    </g>
  </g>
  <path
     fill="none"
     stroke="#fcff83"
     stroke-linecap="round"
     stroke-miterlimit="10"
     stroke-width="2"
     d="M352.097 190.698S330.3 188.4 329.2 208.9c-1 18.8 23.7 31.9 35.701 28.9"
     id="path82" />
  <path
     fill="none"
     stroke="#fcff83"
     stroke-linecap="round"
     stroke-miterlimit="10"
     stroke-width="2"
     d="M359.195 202.998S334.6 199.3 334.7 219.8c0 18.8 16.601 21.8 28.201 32"
     id="path83" />
  <path
     fill="none"
     stroke="#fcff83"
     stroke-linecap="round"
     stroke-miterlimit="10"
     stroke-width="2"
     d="M345.197 184.698s-15.698.703-21.698 14.103c-5.8 13.1.701 19.799 10.801 25.499"
     id="path84" />
  <path
     fill="none"
     stroke="#fcff83"
     stroke-linecap="round"
     stroke-miterlimit="10"
     stroke-width="2"
     d="M402.5 198.8s-2.502 34.001-22.702-3.699"
     id="path85" />
  <path
     fill="none"
     stroke="#fcff83"
     stroke-linecap="round"
     stroke-miterlimit="10"
     stroke-width="2"
     d="M361.296 206.802s-6.999 7.503 1.704 30.498"
     id="path86" />
</svg>
